<svg width="40" height="40" viewBox="0 0 40 40" fill="none" xmlns="http://www.w3.org/2000/svg">
<path d="M35.4637 37.6748C34.5246 37.6748 34.0701 37.2672 33.5437 36.7959C32.9669 36.28 32.3141 35.6945 31.0428 35.6945C28.6602 35.6945 28.5756 37.6748 26.6214 37.6748C24.6846 37.6748 24.5768 35.6951 22.2034 35.6951C19.822 35.6951 19.7373 37.6748 17.7831 37.6748C15.8469 37.6748 15.7385 35.6951 13.3652 35.6951C10.986 35.6951 10.9002 37.6748 8.94777 37.6748C7.00226 37.6748 6.91299 35.6951 4.53096 35.6951C4.41565 35.6951 4.30506 35.7409 4.22352 35.8224C4.14198 35.9039 4.09618 36.0145 4.09618 36.1298C4.09618 36.2451 4.14198 36.3557 4.22352 36.4373C4.30506 36.5188 4.41565 36.5646 4.53096 36.5646C5.46893 36.5646 5.92342 36.9721 6.4498 37.4435C7.02487 37.9594 7.67762 38.5443 8.94835 38.5443C11.3269 38.5443 11.4133 36.5646 13.3652 36.5646C14.3031 36.5646 14.7576 36.9721 15.284 37.4435C15.8597 37.9594 16.513 38.5443 17.7831 38.5443C20.1646 38.5443 20.2492 36.5646 22.2028 36.5646C24.1553 36.5646 24.2341 38.5443 26.6214 38.5443C29.0104 38.5443 29.0828 36.5646 31.0428 36.5646C31.982 36.5646 32.4365 36.9721 32.9634 37.4435C33.5397 37.9594 34.1924 38.5443 35.4643 38.5443C35.5796 38.5443 35.6902 38.4985 35.7717 38.417C35.8533 38.3354 35.8991 38.2249 35.8991 38.1095C35.8991 37.9942 35.8533 37.8836 35.7717 37.8021C35.6902 37.7206 35.579 37.6748 35.4637 37.6748ZM38.1159 32.8353C36.9855 32.8353 36.4405 32.3484 35.8144 31.7861C34.8463 30.9165 34.0173 30.4006 32.5217 30.5339C32.1507 28.8064 30.8289 27.2875 28.8753 26.1513C30.7941 21.4324 31.3333 16.2266 30.4463 10.7948C32.1854 12.3774 33.4898 14.7716 33.6811 17.2469C33.7043 17.531 34.0289 17.7513 34.3188 17.5948C36.3014 16.5281 37.1304 13.2295 34.7941 10.1571C36.1507 10.9513 36.1217 11.4035 36.5623 11.3165C36.7014 11.2875 36.8173 11.189 36.8753 11.0498C37.455 9.45563 36.4579 7.77447 34.9101 6.89911C35.9768 6.83534 37.0202 6.93969 37.9941 7.21795C38.1333 7.25853 38.284 7.22955 38.3941 7.13679C38.5855 6.97447 38.5681 6.74259 38.4985 6.49911C37.7333 3.17158 32.597 2.34839 29.6521 4.95128C27.6173 0.857952 22.2202 0.486937 20.7536 3.17099C20.5797 3.44346 20.7652 3.79708 21.0724 3.83186C22.0811 3.94781 23.084 4.24926 24.0405 4.71882C20.5507 5.12462 20.0057 8.66665 21.2289 8.20868C21.7565 7.99418 22.3188 7.84926 22.9043 7.77389C20.4463 9.04346 18.7768 12.3014 20.3188 14.6087C20.3652 14.684 20.4173 14.7536 20.4695 14.8232C20.5623 14.9333 20.7014 14.9913 20.8521 14.9739C20.997 14.9623 21.1246 14.8695 21.1883 14.742C22.4637 12.2782 24.9275 10.4637 27.4086 9.80288C27.5883 14.6666 26.0579 19.7623 23.0782 24.2493C15.084 23.1188 5.8782 26.9855 7.55357 32.8C4.8869 33.2464 4.80574 30.5159 1.884 30.5159C1.64052 30.5159 1.44922 30.7072 1.44922 30.9507C1.44922 31.1884 1.64052 31.3855 1.884 31.3855C2.58545 31.3855 3.06081 31.571 3.47241 31.8551C3.72168 32.0232 3.94777 32.2261 4.17965 32.4348C5.86081 33.9942 7.82023 33.9768 8.97965 33.1768C8.97965 33.1768 8.98545 33.1768 8.99125 33.171C9.53617 32.8811 10.3768 31.9246 10.9623 31.6637C10.9681 31.6637 10.9739 31.6579 10.9797 31.6579C10.997 31.6464 11.0144 31.6406 11.026 31.629H11.0318C11.6347 31.3565 12.4637 31.3275 12.8985 31.455C12.9101 31.455 12.9217 31.4551 12.9333 31.4608C13.6521 31.4608 14.7883 32.7826 15.5014 33.1942C15.8028 33.3855 16.2318 33.5652 16.655 33.6406C20.2608 34.2087 20.0057 31.113 22.9797 31.4087C23.0318 31.4087 23.2057 31.4435 23.2521 31.455C23.2637 31.455 23.2753 31.4551 23.2869 31.4608C23.3507 31.4608 23.7101 31.5536 24.1739 31.8551C25.1246 32.5101 25.6753 33.513 27.3681 33.6869C30.1101 33.9478 30.4405 31.913 32.2608 31.455H32.2782C33.9014 30.9913 35.0608 32.3072 35.6347 32.7826C36.2144 33.2637 36.9333 33.7043 38.1159 33.7043C38.2312 33.7043 38.3418 33.6585 38.4233 33.577C38.5049 33.4954 38.5507 33.3849 38.5507 33.2695C38.5507 33.1542 38.5049 33.0436 38.4233 32.9621C38.3418 32.8806 38.2312 32.8353 38.1159 32.8353ZM20.7999 13.6753C19.8144 11.2753 22.4231 8.06375 25.5478 7.86085C26.0463 7.83186 26.0985 7.09563 25.6057 7.00288C24.4985 6.7594 23.0202 6.7594 21.6695 7.14201C21.8608 6.71302 22.2086 6.34201 22.684 6.05795C24.6144 4.91592 25.8318 6.1507 26.1623 5.42607C26.2492 5.24056 26.1854 5.01447 26.0173 4.89273C24.7594 3.98839 23.3623 3.37389 21.9362 3.08984C23.8724 1.29273 28.0115 2.771 29.0898 5.85505C29.1883 6.1623 29.5999 6.25505 29.826 5.99998C31.9246 3.61157 36.3594 3.7565 37.484 6.20288C36.0579 5.91302 34.5333 5.94781 33.026 6.29563C32.8231 6.34201 32.6782 6.52752 32.6898 6.73621C32.7014 7.1594 33.1014 7.14201 33.4956 7.24636C35.055 7.67534 36.1333 8.85215 36.1681 10.0464C35.1014 9.19418 33.7681 8.62607 32.5912 8.39998C32.0869 8.30723 31.8608 8.99128 32.313 9.21737C35.1652 10.6145 36.2666 14.6203 34.4579 16.4058C33.9014 13.0029 31.4782 9.93042 29.026 8.70143C28.8637 8.61447 28.626 8.66665 28.2086 8.73042C25.2927 9.20578 22.4115 11.0666 20.7999 13.6753ZM28.2666 9.60578C28.4231 9.57679 28.5739 9.5536 28.7304 9.53621C28.9623 9.66375 29.1883 9.80868 29.4086 9.9652C30.2608 14.3652 30.4231 19.9942 28.1043 25.7391C26.9101 25.1536 25.5246 24.7014 24.0057 24.4058C26.9854 19.7971 28.4869 14.5797 28.2666 9.60578ZM31.4434 30.8116C31.4376 30.8116 31.4318 30.8116 31.426 30.8174C30.0173 31.4203 29.6173 32.8348 27.7565 32.8348C25.4434 32.8348 25.3391 30.5159 22.5854 30.5159C19.7912 30.5159 19.7565 32.8348 17.4086 32.8348C15.0492 32.8348 15.0086 30.5159 12.2318 30.5159C10.0869 30.5159 8.8869 32.3652 8.63762 32.3652C8.56806 32.4174 8.44052 32.4869 8.38255 32.5217H8.37675C6.84632 26.9797 16.4695 24.0348 23.4782 25.2C26.7246 25.7623 30.9854 27.513 31.6753 30.7188C31.5941 30.7478 31.5188 30.7768 31.4434 30.8116Z" fill="black"/>
<path d="M10.6029 8.44638C8.45795 8.44638 6.70722 10.1971 6.70722 12.342C6.70722 14.4928 8.45795 16.2435 10.6029 16.2435C12.7536 16.2435 14.5043 14.4928 14.5043 12.342C14.5043 10.1971 12.7536 8.44638 10.6029 8.44638ZM10.6029 15.3739C8.9391 15.3739 7.57678 14.0116 7.57678 12.342C7.57678 10.6783 8.9391 9.31594 10.6029 9.31594C12.2724 9.31594 13.6348 10.6783 13.6348 12.342C13.6332 13.1457 13.3133 13.9159 12.745 14.4842C12.1768 15.0525 11.4065 15.3724 10.6029 15.3739ZM10.6069 7.32985C10.7222 7.32985 10.8328 7.28405 10.9144 7.20251C10.9959 7.12097 11.0417 7.01038 11.0417 6.89507V6.14725C11.0417 6.03193 10.9959 5.92135 10.9144 5.83981C10.8328 5.75827 10.7222 5.71246 10.6069 5.71246C10.4916 5.71246 10.381 5.75827 10.2995 5.83981C10.218 5.92135 10.1721 6.03193 10.1721 6.14725V6.89507C10.1721 7.13507 10.3669 7.32985 10.6069 7.32985ZM10.1721 17.7925V18.5403C10.1721 18.6556 10.218 18.7662 10.2995 18.8477C10.381 18.9293 10.4916 18.9751 10.6069 18.9751C10.7222 18.9751 10.8328 18.9293 10.9144 18.8477C10.9959 18.7662 11.0417 18.6556 11.0417 18.5403V17.7925C11.0417 17.6772 10.9959 17.5666 10.9144 17.485C10.8328 17.4035 10.7222 17.3577 10.6069 17.3577C10.4916 17.3577 10.381 17.4035 10.2995 17.485C10.218 17.5666 10.1721 17.6772 10.1721 17.7925ZM14.8823 8.93913L15.4284 8.42783C15.4722 8.38942 15.5079 8.34259 15.5333 8.29012C15.5587 8.23765 15.5733 8.18061 15.5762 8.12239C15.5791 8.06417 15.5702 8.00596 15.5502 7.95123C15.5302 7.89649 15.4993 7.84634 15.4595 7.80377C15.4197 7.76119 15.3717 7.72706 15.3184 7.70339C15.2652 7.67973 15.2077 7.66702 15.1494 7.66602C15.0911 7.66502 15.0332 7.67575 14.9792 7.69757C14.9251 7.71939 14.876 7.75186 14.8348 7.79304L14.2887 8.30319C14.2043 8.38191 14.1547 8.4909 14.1508 8.6062C14.1468 8.72149 14.1888 8.83364 14.2675 8.91797C14.3462 9.0023 14.4552 9.05191 14.5705 9.05588C14.6858 9.05984 14.798 9.01785 14.8823 8.93913ZM6.37794 16.8951L6.92461 16.3843C7.00758 16.3053 7.056 16.1967 7.05934 16.0822C7.06268 15.9676 7.02067 15.8564 6.94244 15.7727C6.86421 15.689 6.75609 15.6395 6.64159 15.6351C6.52709 15.6306 6.41546 15.6716 6.33099 15.749L5.78432 16.2603C5.74182 16.2991 5.70744 16.3459 5.68318 16.3981C5.65893 16.4503 5.64527 16.5068 5.64302 16.5643C5.64076 16.6218 5.64994 16.6792 5.67003 16.7332C5.69012 16.7871 5.72072 16.8365 5.76005 16.8785C5.79938 16.9205 5.84666 16.9543 5.89915 16.9779C5.95164 17.0015 6.00829 17.0145 6.06583 17.016C6.12336 17.0176 6.18062 17.0077 6.2343 16.9869C6.28798 16.9661 6.337 16.9349 6.37852 16.8951H6.37794ZM16.0145 13.1403L16.7606 13.1896C16.8175 13.1934 16.8747 13.1859 16.9288 13.1676C16.9829 13.1493 17.0329 13.1206 17.0759 13.083C17.1188 13.0454 17.154 12.9997 17.1793 12.9485C17.2047 12.8973 17.2196 12.8416 17.2235 12.7846C17.2273 12.7277 17.2198 12.6705 17.2015 12.6164C17.1832 12.5623 17.1545 12.5123 17.1169 12.4693C17.0793 12.4263 17.0336 12.3912 16.9824 12.3659C16.9312 12.3405 16.8755 12.3255 16.8185 12.3217L16.0719 12.2725C15.9568 12.2648 15.8434 12.3031 15.7565 12.3791C15.6697 12.455 15.6166 12.5623 15.609 12.6774C15.6013 12.7925 15.6396 12.9059 15.7156 12.9927C15.7915 13.0795 15.8994 13.1326 16.0145 13.1403ZM4.39418 12.3652L5.14084 12.4151L5.16983 12.4162C5.284 12.4183 5.39442 12.3754 5.47722 12.2968C5.56003 12.2182 5.60858 12.1101 5.61239 11.996C5.6162 11.8819 5.57495 11.7708 5.49757 11.6869C5.42018 11.6029 5.31287 11.5528 5.19881 11.5472L4.45215 11.4974C4.33707 11.4897 4.22365 11.528 4.13684 11.604C4.05002 11.6799 3.99694 11.7872 3.98925 11.9023C3.98156 12.0174 4.0199 12.1308 4.09584 12.2176C4.17178 12.3044 4.2791 12.3575 4.39418 12.3652ZM14.3924 16.2852C14.3171 16.2037 14.2135 16.1539 14.1028 16.1462C13.9921 16.1385 13.8826 16.1734 13.7967 16.2437C13.7108 16.314 13.655 16.4145 13.6408 16.5246C13.6265 16.6347 13.6548 16.746 13.72 16.8359L14.193 17.4157C14.2661 17.5049 14.3717 17.5615 14.4865 17.5729C14.6013 17.5843 14.7159 17.5496 14.8052 17.4765C14.8944 17.4034 14.951 17.2978 14.9624 17.183C14.9738 17.0682 14.9392 16.9536 14.8661 16.8643L14.3924 16.2852ZM6.81968 8.40116C6.85584 8.44539 6.90036 8.48206 6.9507 8.50909C7.00103 8.53612 7.0562 8.55296 7.11304 8.55867C7.16989 8.56437 7.2273 8.55883 7.282 8.54235C7.33671 8.52586 7.38763 8.49877 7.43186 8.46261C7.47609 8.42645 7.51276 8.38193 7.53979 8.33159C7.56681 8.28126 7.58366 8.22609 7.58937 8.16925C7.59507 8.1124 7.58953 8.05499 7.57305 8.00029C7.55656 7.94559 7.52947 7.89467 7.49331 7.85043L7.01968 7.2713C6.98352 7.22707 6.939 7.1904 6.88867 7.16337C6.83833 7.13635 6.78317 7.1195 6.72632 7.11379C6.66948 7.10809 6.61207 7.11363 6.55736 7.13012C6.50266 7.1466 6.45174 7.17369 6.40751 7.20985C6.36328 7.24602 6.3266 7.29053 6.29958 7.34087C6.27255 7.3912 6.25571 7.44637 6.25 7.50321C6.24429 7.56006 6.24984 7.61747 6.26632 7.67218C6.2828 7.72688 6.3099 7.7778 6.34606 7.82203L6.81968 8.40116Z" fill="black"/>
</svg>
