<svg width="40" height="40" viewBox="0 0 40 40" fill="none" xmlns="http://www.w3.org/2000/svg">
<path fill-rule="evenodd" clip-rule="evenodd" d="M16.3305 2.85181L15.5383 3.90884L15.232 4.52056L10.2492 6.34556L7.08125 7.70337L2 17.1088L2.32734 17.3057C2.32734 17.3057 4.23262 18.4586 5.3375 18.919C6.54703 19.423 8.92812 20.0198 8.92812 20.0198L9.2375 20.0987L10.7414 17.1495C10.8632 17.6764 10.9703 18.0399 11.0086 18.4432C11.1666 20.1087 10.9515 21.8343 10.9344 23.5971C10.8926 27.8332 10.8625 36.2979 10.8625 36.2979L10.8609 36.6745L11.2375 36.6989C11.2375 36.6989 17.144 37.0717 20.1273 37.1325C23.1554 37.1942 29.1625 37.0598 29.1625 37.0598L29.5594 37.0514L29.2875 18.0991L31.168 21.1631L38 17.7862L33.3594 9.26431L30.2961 6.9479L24.7227 4.44634L23.5836 2.92837L16.3305 2.85181ZM16.7273 3.65649L23.1805 3.72446L24.2063 5.09165L29.8859 7.64087L32.7391 9.7979L36.8992 17.4377L31.468 20.1221L29.7164 17.2682L29.2172 16.3401L28.4648 16.5354L28.7477 36.2635C28.2572 36.2739 22.9949 36.3904 20.1438 36.3323C17.331 36.275 12.1322 35.9482 11.6648 35.919C11.6666 35.436 11.6939 27.7071 11.7344 23.6049C11.7509 21.9043 11.9745 20.1509 11.8055 18.3682C11.7185 17.4509 11.2891 15.851 11.2891 15.851L11.0219 14.8362L8.82188 19.1518C8.46393 19.0587 6.61791 18.586 5.64531 18.1807C4.7956 17.8266 3.43888 17.0149 3.07578 16.8002L7.65234 8.32915L10.5445 7.08931L15.8055 5.16274L16.2211 4.33071L16.7273 3.65649Z" fill="black"/>
<path fill-rule="evenodd" clip-rule="evenodd" d="M23.8309 4.48071C23.8309 4.48071 23.7402 5.43859 23.6574 5.84399C23.4483 6.86827 22.9827 7.89321 22.7551 9.03853C22.7104 9.26313 22.7084 9.39787 22.6824 9.65259L19.6504 7.65259L17.1895 9.5229L15.8316 4.60884L15.0605 4.82134L16.7332 10.8745L19.6832 8.63228L23.3496 11.0502L23.402 10.3737C23.402 10.3737 23.4715 9.53583 23.5395 9.19399C23.743 8.16995 24.2077 7.14613 24.441 6.00337C24.5474 5.48229 24.6277 4.55259 24.6277 4.55259L23.8309 4.48071Z" fill="black"/>
<path fill-rule="evenodd" clip-rule="evenodd" d="M17.4037 3.22917L16.6279 3.42371C16.6279 3.42371 16.8948 4.50316 16.9631 4.95496C17.0657 5.63428 17.4471 6.23624 17.7631 6.7198C18.0358 7.13712 18.4903 7.54392 18.8889 7.87996C19.2874 8.216 19.6295 8.46511 19.6295 8.46511L19.8537 8.62917L20.0857 8.47605C20.0857 8.47605 21.2761 7.71055 21.8514 7.10027C22.4072 6.51071 22.7865 5.82115 23.1654 5.19167C23.337 4.90671 23.5795 4.40339 23.5795 4.40339L23.6178 4.32449L23.6373 3.47996L22.8381 3.46116L22.8225 4.12517C22.78 4.21097 22.5907 4.59573 22.4803 4.77913C22.0919 5.42413 21.7339 6.05824 21.2693 6.551C20.919 6.9226 20.125 7.45885 19.8686 7.63533C19.7455 7.54241 19.6547 7.4791 19.4045 7.26814C19.0292 6.95174 18.5997 6.538 18.4326 6.2822C18.1287 5.81708 17.8204 5.27661 17.7537 4.83533C17.6692 4.27585 17.4037 3.22917 17.4037 3.22917Z" fill="black"/>
<path fill-rule="evenodd" clip-rule="evenodd" d="M20.8916 8.51276L20.1018 8.63776C20.1018 8.63776 20.3996 10.5276 20.5143 11.4565C20.6277 12.3751 20.7557 13.8142 20.7955 14.2542L20.2783 14.2762C20.2201 14.0191 20.1385 13.6738 20.0994 13.4059C19.8601 11.7656 19.451 8.61447 19.451 8.61447L18.6572 8.71676C18.6572 8.71676 19.0656 11.8652 19.3072 13.5214C19.3742 13.9805 19.5666 14.7824 19.5666 14.7824L19.6424 15.1035L21.6721 15.0183L21.6346 14.6004C21.6346 14.6004 21.4435 12.4497 21.3088 11.3582C21.1897 10.3933 20.8916 8.51276 20.8916 8.51276Z" fill="black"/>
</svg>
