<svg width="16" height="16" viewBox="0 0 16 16" fill="none" xmlns="http://www.w3.org/2000/svg">
<path d="M3.3335 6.66658H4.66683C6.00016 6.66658 6.66683 5.99992 6.66683 4.66659V3.33325C6.66683 1.99992 6.00016 1.33325 4.66683 1.33325H3.3335C2.00016 1.33325 1.3335 1.99992 1.3335 3.33325V4.66659C1.3335 5.99992 2.00016 6.66658 3.3335 6.66658Z" stroke="#FDFDFD" stroke-miterlimit="10" stroke-linecap="round" stroke-linejoin="round"/>
<path d="M11.3335 6.66658H12.6668C14.0002 6.66658 14.6668 5.99992 14.6668 4.66659V3.33325C14.6668 1.99992 14.0002 1.33325 12.6668 1.33325H11.3335C10.0002 1.33325 9.3335 1.99992 9.3335 3.33325V4.66659C9.3335 5.99992 10.0002 6.66658 11.3335 6.66658Z" stroke="#FDFDFD" stroke-miterlimit="10" stroke-linecap="round" stroke-linejoin="round"/>
<path d="M11.3335 14.6666H12.6668C14.0002 14.6666 14.6668 13.9999 14.6668 12.6666V11.3333C14.6668 9.99992 14.0002 9.33325 12.6668 9.33325H11.3335C10.0002 9.33325 9.3335 9.99992 9.3335 11.3333V12.6666C9.3335 13.9999 10.0002 14.6666 11.3335 14.6666Z" stroke="#FDFDFD" stroke-miterlimit="10" stroke-linecap="round" stroke-linejoin="round"/>
<path d="M3.3335 14.6666H4.66683C6.00016 14.6666 6.66683 13.9999 6.66683 12.6666V11.3333C6.66683 9.99992 6.00016 9.33325 4.66683 9.33325H3.3335C2.00016 9.33325 1.3335 9.99992 1.3335 11.3333V12.6666C1.3335 13.9999 2.00016 14.6666 3.3335 14.6666Z" stroke="#FDFDFD" stroke-miterlimit="10" stroke-linecap="round" stroke-linejoin="round"/>
</svg>
