<svg width="20" height="20" viewBox="0 0 20 20" fill="none" xmlns="http://www.w3.org/2000/svg">
<path d="M6.59336 17.8433C6.45487 17.7448 6.30926 17.6165 6.20772 17.4801L6.19883 17.468C5.65102 17.643 5.09576 17.6469 4.5293 17.6459C3.74703 17.6446 3.41518 17.5703 2.83389 16.9577C2.4151 16.5163 2.34291 16.4328 2.44758 15.8576L2.59551 15.1194C3.10778 12.7 4.31223 10.3038 5.97451 8.48363L6.40905 8.02855C6.47291 7.96219 6.55731 7.89006 6.60651 7.81299C7.17772 6.91816 7.21637 5.8368 6.79473 4.86963L6.56262 4.39912C6.19375 3.56873 6.34748 2.67185 6.92469 1.9826C7.05198 1.83058 7.1818 1.66217 7.40584 1.70421C8.16606 1.84687 8.69916 2.45051 9.22852 2.96041L9.99596 3.68148C10.0492 3.64393 10.0928 3.59443 10.14 3.54978L10.8897 2.84016C11.3466 2.39215 11.9633 1.78403 12.6227 1.69226C12.9755 1.65971 13.3623 2.35926 13.4636 2.62857L13.5159 2.76361C13.6603 3.18926 13.6635 3.70707 13.5281 4.13588C13.4704 4.31834 13.3872 4.48922 13.3218 4.66791L12.8662 6.00281C12.7981 6.2235 12.8349 6.76197 12.8956 6.98463C12.9974 7.35883 13.1919 7.60324 13.4554 7.87711L13.9074 8.34881C14.9529 9.46369 15.9926 11.0446 16.5675 12.4852L16.9207 13.4108L17.2607 14.5381C17.292 14.7068 17.3448 14.8759 17.3829 15.0439L17.5203 15.6884C17.5398 15.7891 17.5611 15.8929 17.5779 15.9939L17.5848 16.0292C17.6711 16.3973 17.4894 16.6162 17.2578 16.8656C16.8249 17.3317 16.4912 17.5697 15.8467 17.5737L15.412 17.5773C15.1171 17.5876 14.8392 17.6297 14.5403 17.6048C14.468 17.5988 13.8274 17.4691 13.8206 17.4722C13.8065 17.4786 13.7676 17.5328 13.7549 17.5463L13.5644 17.733C12.7727 18.443 11.3156 18.4701 10.4287 17.9468C10.279 17.8585 10.1641 17.7452 10.0247 17.6467C9.99613 17.6266 9.99256 17.6487 9.96936 17.6695L9.8485 17.7749C8.99987 18.4646 7.4625 18.4731 6.59336 17.8433ZM7.40784 2.27162C7.19547 2.49754 7.03916 2.77262 6.9609 3.0725C6.86905 3.42449 6.93252 4.04228 7.16127 4.34152C7.98955 4.291 8.67344 4.81846 8.88696 5.60102C8.89809 5.64182 8.89619 5.71486 8.92141 5.74574L11.091 5.73705C11.2206 4.9607 11.8989 4.30764 12.7083 4.33914C12.7626 4.34127 12.842 4.37935 12.8659 4.32109L12.978 4.03379C13.1991 3.40016 13.0219 2.75906 12.58 2.27728C11.9977 2.56451 11.8165 2.72035 11.369 3.1541L10.3489 4.15525C10.0039 4.49492 9.95424 4.45852 9.60846 4.1158L8.64284 3.16748C8.34313 2.87312 8.06231 2.58773 7.68256 2.39582L7.40784 2.27162ZM7.39155 4.89371L7.54362 5.34629C7.58547 5.51855 7.5926 5.65584 7.62342 5.82088L7.93436 5.81396C8.06225 5.80496 8.19713 5.78729 8.32526 5.79613L8.35989 5.78607C8.2795 5.37027 7.95194 5.0201 7.54006 4.92045L7.39155 4.89371ZM12.5846 4.89457L12.4659 4.92062C12.1427 4.98992 11.8437 5.2507 11.7164 5.55053L11.6583 5.70795C11.6784 5.7218 11.7203 5.7148 11.7457 5.7142L12.3595 5.71236L12.6721 4.89131L12.5846 4.89457ZM11.7737 6.27027L8.94157 6.31176C8.80369 6.3127 8.65692 6.30764 8.52057 6.32953L8.38727 6.34555C8.30922 6.3582 8.22321 6.356 8.14412 6.3577L7.64127 6.3643C7.5977 6.68396 7.4928 7.3743 7.31676 7.64957L8.11785 7.64328L12.5613 7.62777C12.3398 7.28646 12.2749 6.66324 12.2756 6.26932L11.7737 6.27027ZM8.82465 8.19535L7.69621 11.6162L6.83721 15.2343L6.56328 17.0417C6.73619 17.3102 7.22071 17.6023 7.52369 17.6635L7.54121 17.6664C8.26737 17.8639 9.06987 17.7166 9.62844 17.2034C9.67438 17.1612 9.72356 17.1674 9.72604 17.089L9.72612 8.19246L8.82465 8.19535ZM10.4612 8.1957C10.4008 8.199 10.3339 8.20662 10.2741 8.19977L10.2708 16.9969C10.2706 17.1774 10.2731 17.1143 10.4036 17.2286C10.7651 17.5452 11.2257 17.7371 11.7102 17.7432L12.0801 17.7374C12.3928 17.708 12.6906 17.6205 12.9671 17.4713C13.1576 17.3516 13.2864 17.2058 13.4435 17.049L13.1393 15.1499C12.8701 13.7704 12.5416 12.4076 12.1339 11.0619L11.2075 8.31123C11.195 8.26918 11.1915 8.23367 11.1688 8.19512L10.4612 8.1957ZM11.7572 8.1975L12.66 10.9096L13.1788 12.769L13.4504 13.9269C13.4662 13.9809 13.4712 14.0372 13.4839 14.0917L13.6176 14.6901L13.9258 16.5136C13.9458 16.6453 13.9626 16.7768 13.9783 16.9089C14.164 16.9531 14.3544 17.0126 14.544 17.0345C14.8829 17.0734 15.2075 17.0252 15.5455 17.0141C16.0708 16.9967 16.2485 17.0522 16.6732 16.6695L17.0539 16.2415C17.018 15.9328 16.9465 15.6251 16.8823 15.3212C16.4167 13.1155 15.411 11.0058 13.9736 9.26725L13.1807 8.38916C13.1184 8.32605 13.0587 8.25559 12.991 8.19869L11.7572 8.1975ZM7.98436 8.19641C7.87807 8.20334 7.77692 8.21902 7.6719 8.22533L7.06971 8.23133C7.02854 8.23148 6.98926 8.2177 6.95807 8.2515L6.85067 8.3793C6.44744 8.81414 6.0375 9.23652 5.67426 9.70697L5.20235 10.3785C4.40778 11.5651 3.8235 12.8258 3.40338 14.1906L2.95635 16.1426C2.92577 16.3183 3.34463 16.7133 3.47289 16.8021C3.837 17.091 4.07354 17.0769 4.50481 17.0785C5.07895 17.0806 5.46352 17.0844 6.02684 16.9123C6.04813 16.8021 6.05455 16.6908 6.0701 16.5799L6.23293 15.4736L7.02748 11.9733L7.57973 10.1485L8.22651 8.20117L7.98436 8.19641Z" fill="#292526"/>
</svg>
