<svg width="40" height="40" viewBox="0 0 40 40" fill="none" xmlns="http://www.w3.org/2000/svg">
<path d="M10.833 20.9167C11.6663 17.5834 13.333 15 15.4997 12.4167C19.7497 7.33336 27.4163 12 29.4163 16.75C31.4997 21.75 23.1663 21.3334 20.583 21.3334C16.9997 21.3334 13.4163 20.8334 9.83301 20.5C9.16634 20.4167 9.16634 21.5 9.83301 21.5834C16.4997 22.3334 23.1663 22.9167 29.833 21.75C32.9163 21.25 29.4997 14.6667 28.583 13.4167C26.1663 10 21.4997 8.91669 17.583 9.75003C13.4997 10.5834 10.583 17.1667 9.74967 20.75C9.66634 21.25 10.6663 21.5 10.833 20.9167Z" fill="#010101"/>
<path d="M11.4998 15.0833C6.58311 16.1667 -0.666894 18.1667 1.24977 24.5C3.16644 30.8333 14.9998 30.75 19.9998 30.75C24.0831 30.75 28.0831 30 31.9164 28.8333C34.1664 28.1667 37.7498 27.0833 38.5831 24.5833C40.7498 18.1667 35.7498 16.1667 30.0831 15.5833C29.4164 15.5 29.4164 16.5833 30.0831 16.6667C32.1664 16.9167 33.9998 17.1667 35.9164 18C38.9164 21.25 38.7498 24.0833 35.3331 26.3333C34.1664 26.9167 32.9164 27.4167 31.5831 27.75C27.3331 29.1667 22.8331 29.5833 18.4164 29.5833C14.0831 29.5833 9.49977 29 5.49977 27.25C1.08311 25.3333 0.916439 20.6667 4.99977 18.3333C7.0831 17.1667 9.41644 16.5 11.6664 16C12.4164 15.9167 12.1664 14.9167 11.4998 15.0833Z" fill="#010101"/>
</svg>
