<svg width="40" height="40" viewBox="0 0 40 40" fill="none" xmlns="http://www.w3.org/2000/svg">
<g clip-path="url(#clip0_668_4926)">
<path d="M20 39.65C9.1683 39.65 0.35 30.8317 0.35 20C0.35 9.16212 9.16823 0.35 20 0.35C30.8318 0.35 39.65 9.16212 39.65 20C39.65 30.8317 30.8317 39.65 20 39.65ZM20 2.55C10.3755 2.55 2.55 10.3755 2.55 20C2.55 29.6245 10.3755 37.45 20 37.45C29.6245 37.45 37.45 29.6245 37.45 20C37.45 10.3755 29.6245 2.55 20 2.55Z" fill="black" stroke="white" stroke-width="0.7"/>
<path d="M15.2186 15.3062H10.6561C9.85605 15.3062 9.20605 14.6562 9.20605 13.8562C9.20605 13.0562 9.85605 12.4062 10.6561 12.4062H15.2186C16.0186 12.4062 16.6686 13.0562 16.6686 13.8562C16.6686 14.6562 16.0186 15.3062 15.2186 15.3062ZM29.3498 15.3062H24.7873C23.9873 15.3062 23.3373 14.6562 23.3373 13.8562C23.3373 13.0562 23.9873 12.4062 24.7873 12.4062H29.3498C30.1498 12.4062 30.7998 13.0562 30.7998 13.8562C30.7998 14.6562 30.1498 15.3062 29.3498 15.3062ZM19.9998 29.825C18.1748 29.825 16.3498 29.1 14.5811 27.6437C14.2843 27.4001 14.0966 27.0485 14.0591 26.6664C14.0216 26.2843 14.1374 25.903 14.3811 25.6063C14.6247 25.3095 14.9763 25.1218 15.3584 25.0843C15.7405 25.0468 16.1218 25.1626 16.4186 25.4063C18.8936 27.4438 21.1061 27.4438 23.5811 25.4063C23.8778 25.1626 24.2591 25.0468 24.6412 25.0843C25.0233 25.1218 25.3749 25.3095 25.6186 25.6063C25.8622 25.903 25.978 26.2843 25.9405 26.6664C25.903 27.0485 25.7153 27.4001 25.4186 27.6437C23.6498 29.1 21.8248 29.825 19.9998 29.825Z" fill="black"/>
</g>
<defs>
<clipPath id="clip0_668_4926">
<rect width="40" height="40" fill="white"/>
</clipPath>
</defs>
</svg>
