<svg width="40" height="40" viewBox="0 0 40 40" fill="none" xmlns="http://www.w3.org/2000/svg">
<path d="M33.4765 6.39998C33.2919 6.39998 32.4304 6.46152 31.3842 6.5846C30.1534 5.41537 29.3534 4.36921 28.7996 3.26152C28.7381 3.13844 28.6765 3.0769 28.5534 3.0769C28.4919 3.0769 28.3688 3.0769 28.3073 3.13844L27.9381 3.44613C21.5381 3.63075 17.1688 3.56921 13.0458 3.3846C12.9842 3.3846 12.9227 3.3846 12.8611 3.44613C12.7996 3.44613 12.7996 3.44613 12.7381 3.50767C11.6919 4.1846 10.7073 5.04614 9.53806 6.21537L7.01498 6.15383C6.03037 6.15383 4.86114 6.15383 4.61498 7.3846C4.61498 7.3846 4.06114 29.6615 4.06114 30.0923C3.93806 32.1231 3.81498 34.7077 5.35344 36.0615C6.0919 36.6769 6.95344 36.9846 7.87652 36.8615C9.10729 36.7384 30.7073 36.9231 31.3227 36.9231C35.1381 37.1077 35.7534 35.6307 35.3842 31.2615C35.015 26.3384 35.3842 21.6615 35.8765 10.5231C35.9381 9.16921 35.815 8.49229 35.815 8.12306C35.9996 6.46152 35.1381 6.21537 33.4765 6.39998ZM28.4304 3.8769C28.9842 4.86152 29.7227 5.7846 30.7688 6.83075V6.89229C29.0458 10.5846 27.3842 13.5384 25.5381 16.1231C24.7996 15.1384 23.9996 14.2154 23.2611 13.2923C22.4611 12.3077 21.7227 11.3846 20.9227 10.4L28.4304 3.8769ZM23.6304 26.4L23.1996 25.9077L23.3842 25.7231L23.4458 25.6615C23.5688 25.9077 23.5688 26.1538 23.6304 26.4ZM23.6304 26.9538H23.7534C23.815 27.3231 23.9381 27.6307 23.9996 28L23.4458 27.2615L23.6304 26.9538ZM23.2611 24.6154L23.1381 24.4923L23.1996 24.4307C23.2611 24.4923 23.2611 24.5538 23.2611 24.6154ZM22.4611 22.3384C22.5842 22.5846 22.7073 22.7692 22.8919 22.9538L22.8304 23.0154C22.7688 22.9538 22.7073 22.8923 22.7073 22.8307C22.6458 22.7692 22.5227 22.7692 22.4611 22.8307C22.3996 22.8923 22.3996 23.0154 22.4611 23.0769L22.5842 23.2C22.5227 23.2615 22.3996 23.3231 22.3381 23.3231C22.2765 23.3846 22.215 23.4461 22.2765 23.5077C22.2765 23.5692 22.3381 23.5692 22.3996 23.5692H22.4611C22.5842 23.5077 22.6458 23.4461 22.7688 23.3846C22.8919 23.5077 22.9534 23.6307 23.0765 23.8154L23.1381 23.8769C23.1381 23.9384 23.1381 24 23.1996 24.0615C23.1381 24.0615 23.1381 24.0615 23.0765 24.1231L22.9534 24.1846L22.8304 24.0615C22.7688 24 22.7073 24 22.5842 24.0615C22.5227 24.1231 22.5227 24.1846 22.5842 24.3077L22.7073 24.4307L22.4611 24.6154C22.3996 24.6769 22.3996 24.7384 22.4611 24.8615C22.4611 24.9231 22.5227 24.9231 22.5842 24.9231C22.6458 24.9231 22.6458 24.9231 22.7073 24.8615L22.9534 24.6769L23.3842 25.2307V25.2923L23.1996 25.4769L23.015 25.6615L22.9534 25.6C22.8919 25.5384 22.8304 25.5384 22.7688 25.5384C22.7073 25.6 22.7073 25.6615 22.7073 25.7231L22.7688 25.8461L22.4611 26.0923C22.3996 26.1538 22.3996 26.2769 22.4611 26.3384C22.4611 26.4 22.5227 26.4 22.5842 26.4C22.6458 26.4 22.6458 26.4 22.7073 26.3384L22.9534 26.0923L23.3842 26.7077L23.1996 26.9538L23.1381 26.8307C23.0765 26.7692 23.015 26.7692 22.8919 26.8307C22.8304 26.8923 22.8304 26.9538 22.8919 27.0769L23.015 27.2615L22.8304 27.5077C22.7688 27.5692 22.7688 27.6923 22.8919 27.6923H22.9534C23.015 27.6923 23.0765 27.6923 23.0765 27.6308L23.1996 27.5077L23.9381 28.4307C23.9381 28.4923 23.9996 28.4923 24.0611 28.4923C24.1227 28.9231 24.2458 29.2923 24.3073 29.7231L24.2458 29.7846L23.9381 29.4769C23.9381 29.1077 23.815 28.7384 23.6919 28.3077C23.6304 28.2461 23.5688 28.1846 23.5073 28.2461C23.4458 28.3077 23.3842 28.3692 23.4458 28.4307C23.5688 28.6769 23.6304 28.9231 23.6304 29.1077C23.2611 28.7384 22.9534 28.3077 22.6458 27.8769C22.5842 27.8154 22.5227 27.8154 22.4611 27.8154C22.3996 27.8769 22.3996 27.9384 22.3996 28C22.4611 28.1231 22.5842 28.2461 22.6458 28.3077C22.6458 28.3077 22.5842 28.3077 22.5842 28.3692C22.4611 28.4923 22.3996 28.6154 22.2765 28.8C22.215 28.6769 22.1534 28.6154 22.0919 28.4923C22.0304 28.4307 21.9688 28.3692 21.9073 28.4307C21.8458 28.4923 21.7842 28.5538 21.8458 28.6154C21.9073 28.7384 22.0304 28.8615 22.0919 28.9846L21.7227 29.3538L21.6611 29.2923C21.5996 29.2307 21.5381 29.2307 21.4765 29.2307C21.415 29.2923 21.415 29.3538 21.415 29.4154C21.415 29.4769 21.4765 29.4769 21.5381 29.5384L21.4765 29.6C21.415 29.6615 21.415 29.7846 21.4765 29.8461C21.4765 29.9077 21.5381 29.9077 21.5996 29.9077C21.6611 29.9077 21.6611 29.9077 21.7227 29.8461L21.7842 29.7846C22.0919 30.1538 22.3996 30.5231 22.7073 30.8307C22.6458 31.0154 22.5227 31.2 22.4611 31.3846L22.3381 31.5077L22.0304 31.3846C22.0919 31.0769 22.1534 30.7692 22.0919 30.4615C22.0919 30.4 22.0304 30.3384 21.9073 30.3384C21.8458 30.3384 21.7842 30.4 21.7842 30.5231V31.0769L21.1688 30.4C21.1073 30.3384 21.0458 30.3384 20.9227 30.4C20.8611 30.4615 20.8611 30.5231 20.9227 30.6461L21.6611 31.5077C21.5996 31.7538 21.5381 31.9384 21.415 32.1231L21.1073 31.8154C21.1688 31.6307 21.1688 31.5077 21.1688 31.3231C21.1688 31.2615 21.1073 31.1384 21.0458 31.1384C20.9842 31.1384 20.8611 31.2 20.8611 31.2615C20.8611 31.3231 20.8611 31.4461 20.7996 31.5077C20.615 31.3231 20.4304 31.1384 20.2458 30.8923C20.1842 30.8307 20.0611 30.8307 19.9996 30.8923C19.9381 30.9538 19.9381 31.0769 19.9996 31.1384L20.2458 31.3846C20.1842 31.3846 20.1227 31.3846 20.1227 31.4461L19.9381 31.8769L19.5688 31.5077C19.5073 31.4461 19.3842 31.4461 19.3227 31.5077C19.2611 31.5692 19.2611 31.6923 19.3227 31.7538L19.7534 32.1846L19.5073 32.6769C18.7688 31.8769 17.8458 31.1384 16.7381 30.4C17.7227 25.7231 18.3996 20.9231 18.8304 17.2307C19.3842 17.2307 19.8765 17.2923 20.4304 17.2923C20.9227 17.2923 21.4765 17.2923 21.9688 17.3538C22.215 19.0154 22.4611 20.7384 22.7688 22.4C22.7073 22.3384 22.7073 22.2769 22.6458 22.2154C22.5842 22.1538 22.5227 22.0923 22.4611 22.1538V22.3384ZM20.4304 31.5077L20.7996 31.8769C20.7381 32.1231 20.6765 32.3077 20.615 32.5538L20.1842 32.1231L20.4304 31.5692V31.5077ZM20.4919 32.8615L20.3073 33.2307V33.3538L20.2458 33.4154C20.1227 33.2307 19.9381 33.0461 19.7534 32.8615L19.9996 32.3077L20.4919 32.8615ZM20.9227 32.9231L20.8611 32.8615C20.9227 32.6154 20.9842 32.4307 21.0458 32.1846C21.1073 32.2461 21.1688 32.3692 21.2919 32.4307C21.2304 32.4923 21.2304 32.5538 21.1688 32.6154C21.1073 32.6769 21.1688 32.7384 21.1688 32.7384C21.1073 32.7384 21.0458 32.8 20.9227 32.9231ZM23.015 31.0154C23.015 30.9538 23.015 30.9538 23.015 31.0154C23.0765 30.7692 23.0765 30.5231 23.1381 30.3384C23.1996 30.4 23.2611 30.4615 23.3227 30.4615C23.3227 30.4615 23.3842 30.5231 23.4458 30.5231C23.5073 30.5231 23.5073 30.5231 23.5688 30.4615C23.6304 30.4 23.6304 30.2769 23.5688 30.2154L23.2611 29.9077C23.2611 29.6615 23.2611 29.4769 23.1996 29.2307C23.1996 29.1692 23.0765 29.1077 23.015 29.1077C22.9534 29.1077 22.8919 29.2307 22.8919 29.2923V29.5384C22.7688 29.4154 22.6458 29.2307 22.5842 29.1077C22.7073 28.9231 22.8304 28.8 22.9534 28.6154C23.1996 28.9846 23.5073 29.2923 23.815 29.6C23.815 30.0307 23.6919 30.4 23.4458 30.6461C23.1996 30.8307 23.1381 30.8923 23.015 31.0154ZM22.7688 30.7077C22.4611 30.4 22.215 30.0923 21.9688 29.7846L22.3381 29.4154C22.5227 29.6615 22.7073 29.8461 22.8919 30.0923C22.8304 30.2769 22.7688 30.4615 22.7688 30.7077ZM23.9996 29.9077L24.0611 29.9692L23.9381 30.0923C23.9996 30.0308 23.9996 29.9692 23.9996 29.9077ZM22.0304 31.8769L21.7842 32.1231C21.8458 32 21.9073 31.8769 21.9073 31.7538L22.0304 31.8769ZM22.2765 16.6769C22.215 16.6769 22.215 16.6769 22.1534 16.7384C21.5996 16.7384 21.1073 16.6769 20.5534 16.6769C19.9381 16.6769 19.3842 16.6769 18.7688 16.6154C18.215 16.1846 17.415 15.5692 16.7381 14.8307C16.7996 14.7077 16.9227 14.6461 16.9842 14.5231C17.1073 14.5846 17.1688 14.6461 17.2919 14.7077L17.2304 15.0769C17.2304 15.1384 17.2919 15.2615 17.3534 15.2615C17.415 15.2615 17.4765 15.2 17.4765 15.1384V15.0154L17.7842 15.3231C17.7842 15.3846 17.8458 15.3846 17.9073 15.3846C17.9688 15.3846 17.9688 15.3846 18.0304 15.3231C18.0919 15.2615 18.0919 15.2 18.0304 15.0769C17.9073 14.8923 17.7227 14.7077 17.5381 14.5846L17.5996 13.9692C17.7842 14.0923 17.9688 14.2769 18.1534 14.4615V14.5846C18.1534 14.6461 18.215 14.7692 18.2765 14.7692C18.3381 14.7692 18.3381 14.7692 18.3996 14.7077H18.4611C18.5227 14.7077 18.5227 14.7077 18.5842 14.6461C18.6458 14.5846 18.6458 14.5231 18.5842 14.4L18.4611 14.2769V13.6615C18.5842 13.7846 18.7073 13.8461 18.8304 13.9692V14.0307C18.8304 14.0923 18.8919 14.2154 18.9534 14.2154C19.015 14.2154 19.015 14.2154 19.015 14.1538C19.1381 14.2769 19.3227 14.4 19.4458 14.5231C19.4458 14.5231 19.5073 14.5846 19.5688 14.5846C19.6304 14.5846 19.6304 14.5846 19.6919 14.5231C19.7534 14.4615 19.7534 14.3384 19.6919 14.2769C19.5073 14.1538 19.3227 13.9692 19.1381 13.7846C19.1381 13.6 19.1996 13.3538 19.1996 13.1692L19.5688 13.4769C19.5688 13.5384 19.5688 13.6615 19.5073 13.7231C19.5073 13.7846 19.5688 13.9077 19.6304 13.9077C19.6919 13.9077 19.7534 13.8461 19.7534 13.7846V13.7231L20.1227 14.0307C20.1227 14.0307 20.1842 14.0923 20.2458 14.0923C20.3073 14.0923 20.3073 14.0923 20.3688 14.0307C20.4304 13.9692 20.4304 13.8461 20.3688 13.7846L19.9996 13.5384C19.9996 13.3538 20.0611 13.1077 20.0611 12.9231L20.615 13.4769L21.1688 13.9692C21.1688 13.9692 21.2304 14.0307 21.2919 14.0307C21.3534 14.0307 21.3534 14.0308 21.415 13.9692C21.4765 13.9077 21.4765 13.7846 21.415 13.7231L20.9227 13.2923L20.9842 12.7384C21.1688 12.9231 21.3534 13.1692 21.5381 13.3538C21.5381 13.4769 21.4765 13.6 21.4765 13.7231C21.4765 13.7846 21.5381 13.9077 21.5996 13.9077C21.6611 13.9077 21.7227 13.8461 21.7227 13.7846V13.7231L21.8458 13.8461C21.8458 13.8461 21.9073 13.9077 21.9688 13.9077C22.0304 13.9077 22.0304 13.9077 22.0919 13.8461C22.1534 13.7846 22.1534 13.6615 22.0919 13.6C21.9688 13.4769 21.9073 13.4154 21.8458 13.2923C21.8458 13.1077 21.9073 12.9231 21.9688 12.6769C22.2765 13.0461 22.5842 13.4154 22.8304 13.7846L23.5688 14.7077L22.2765 16.6769ZM20.4919 10.8307C20.5534 10.9538 20.6765 11.0769 20.7381 11.1384L20.6765 11.8769C20.4919 11.6923 20.3688 11.4461 20.1842 11.2615V11.1384C20.3073 11.0154 20.3688 10.8923 20.4919 10.8307ZM21.6611 12.3077C21.5996 12.4923 21.5996 12.7384 21.5381 12.9231C21.3534 12.6769 21.1688 12.4923 20.9842 12.2461L21.0458 11.4461C21.2304 11.7538 21.4765 12.0615 21.6611 12.3077ZM20.1227 12.5538C20.1227 12.3077 20.1842 12 20.1842 11.7538C20.3688 11.9384 20.4919 12.1846 20.6765 12.3692L20.615 12.9846L20.1227 12.5538ZM19.8765 11.4461C19.8765 11.6923 19.8765 11.9384 19.815 12.2461L19.4458 11.9384C19.6304 11.7538 19.7534 11.6308 19.8765 11.4461ZM19.3227 12.9846V12.1846L19.815 12.6154C19.815 12.8615 19.7534 13.0461 19.7534 13.2923L19.3227 12.9846ZM18.6458 12.8L19.015 13.1077C19.015 13.2923 18.9534 13.5384 18.9534 13.7231C18.8304 13.6 18.7073 13.4769 18.5842 13.4154C18.6458 13.1692 18.6458 12.9846 18.6458 12.8ZM19.015 12.4307V12.7384L18.8919 12.6154C18.8919 12.4923 18.9534 12.4923 19.015 12.4307ZM18.1534 13.3538L18.2765 13.4769V14.0307C18.1534 13.9077 17.9688 13.7846 17.8458 13.6615L17.9073 13.6L18.1534 13.3538ZM17.3534 14.1538V14.4C17.2919 14.4 17.2919 14.3384 17.2304 14.3384C17.2919 14.2769 17.3534 14.2154 17.3534 14.1538ZM27.2611 4.06152L20.4919 10.0307L13.7227 4.06152C19.1381 4.24613 22.6458 4.1846 27.2611 4.06152ZM12.9227 4.12306L19.9996 10.4615L17.415 13.2308C16.615 14.0923 15.7534 15.0154 14.9534 15.8769C14.1534 14.3384 13.3534 12.8 12.5534 11.3231C11.6919 9.72306 10.8919 8.12306 10.0304 6.5846C11.0765 5.59998 11.9996 4.79998 12.9227 4.12306ZM35.3227 10.4615C34.8304 21.6 34.4611 26.3384 34.8304 31.2615C35.1996 36.0615 34.1534 36.3692 31.3842 36.2461C30.7688 36.2461 9.16883 36 7.81498 36.1846C7.07652 36.2461 6.33806 36.0615 5.78421 35.5077C4.43037 34.3384 4.55344 31.9384 4.67652 30.0307C4.73806 28.7384 5.23037 7.3846 5.23037 7.44614C5.35344 6.76921 5.84575 6.70767 6.95344 6.70767L9.41498 6.76921C10.2765 8.36921 11.0765 9.96921 11.9381 11.5692C12.7996 13.2307 13.7227 14.8923 14.5842 16.5538C14.6458 16.6154 14.7073 16.6769 14.8304 16.7384H14.8919C14.9534 16.7384 15.0765 16.6769 15.1381 16.6154C15.5688 16.1846 15.9381 15.7538 16.3688 15.2615C16.9842 16 17.7842 16.6154 18.3381 17.0461C17.8458 20.8 17.1688 25.7231 16.1842 30.4615C16.1842 30.5846 16.1842 30.7077 16.3073 30.7692C17.9073 31.8154 19.1381 32.9231 20.0611 34.0923C20.1227 34.1538 20.1842 34.2154 20.3073 34.2154C20.3688 34.2154 20.4304 34.2154 20.4919 34.1538L22.7073 32.1231L24.9227 30.0923C24.9842 30.0308 25.0458 29.9077 25.0458 29.7846C24.0611 25.6615 23.2611 21.4154 22.6458 17.2307L23.9381 15.1384C24.3688 15.6923 24.8611 16.3077 25.2919 16.8615C25.3534 16.9231 25.415 16.9846 25.5381 16.9846C25.6611 16.9846 25.7227 16.9231 25.7842 16.8615C27.6919 14.2154 29.4765 11.1384 31.2611 7.19998C32.4919 7.0769 32.9842 7.0769 33.4765 7.01537C35.2611 6.83075 35.3227 7.19998 35.2611 8.12306C35.2611 9.16921 35.4458 8.61537 35.3227 10.4615Z" fill="#010101"/>
</svg>
