<svg width="40" height="40" viewBox="0 0 40 40" fill="none" xmlns="http://www.w3.org/2000/svg">
<path d="M37.9998 15.6888H36.9758C36.8358 15.6888 36.7038 15.7168 36.5758 15.7648V14.3928C36.5758 13.2888 35.6798 12.3928 34.5758 12.3928C34.1278 12.3928 33.7118 12.5488 33.3798 12.8008V12.1568C33.3798 10.8408 32.3078 9.77283 30.9918 9.77283C29.6758 9.77283 28.6078 10.8408 28.6078 12.1568V16.0848H25.9438V14.7888C25.9438 13.8168 25.1558 13.0288 24.1878 13.0288C23.6358 13.0288 23.1518 13.2888 22.8278 13.6848C22.5038 13.2888 22.0198 13.0288 21.4678 13.0288C20.9198 13.0288 20.4318 13.2888 20.1118 13.6848C19.7878 13.2888 19.3038 13.0288 18.7518 13.0288C18.2038 13.0288 17.7158 13.2888 17.3918 13.6848C17.0718 13.2888 16.5838 13.0288 16.0358 13.0288C15.569 13.0288 15.1214 13.2143 14.7913 13.5443C14.4612 13.8744 14.2758 14.322 14.2758 14.7888V16.0848H11.3878V12.1568C11.3878 10.8408 10.3198 9.77283 9.00381 9.77283C7.6878 9.77283 6.6198 10.8408 6.6198 12.1568V12.8008C6.27489 12.5378 5.85356 12.3945 5.41981 12.3928C4.3158 12.3928 3.4198 13.2888 3.4198 14.3928V15.7648C3.29219 15.7154 3.15664 15.6897 3.0198 15.6888H1.9998C1.3358 15.6888 0.799805 16.2288 0.799805 16.8888V19.5808C0.799805 20.2408 1.3358 20.7808 1.9998 20.7808H3.0198C3.1598 20.7808 3.2918 20.7488 3.4198 20.7048V22.0768C3.4198 23.1808 4.3158 24.0768 5.41981 24.0768C5.8718 24.0768 6.2838 23.9208 6.6198 23.6688V24.3128C6.6198 25.6288 7.6878 26.6968 9.00381 26.6968C10.3198 26.6968 11.3878 25.6288 11.3878 24.3128V20.8168H13.1798V23.2248C13.1798 23.8848 13.3718 24.5248 13.7358 25.0728C14.0838 25.6008 14.4878 26.0768 14.9318 26.4768C15.4678 26.9608 15.7718 27.6848 15.7718 28.4608V36.6928C15.7718 37.3568 16.3118 37.8928 16.9718 37.8928H23.0558C23.7198 37.8928 24.2558 37.3568 24.2558 36.6928V28.2528C24.2558 27.5488 24.4758 26.8688 24.8918 26.2768C25.1958 25.8448 25.4518 25.3848 25.6518 24.9128C25.8478 24.4488 25.9438 23.9288 25.9438 23.3608V20.8168H28.6078V24.3128C28.6078 25.6288 29.6758 26.6968 30.9918 26.6968C32.3078 26.6968 33.3798 25.6288 33.3798 24.3128V23.6688C33.7232 23.9318 34.1433 24.0751 34.5758 24.0768C35.6798 24.0768 36.5758 23.1808 36.5758 22.0768V20.7048C36.7038 20.7488 36.8358 20.7808 36.9758 20.7808H37.9998C38.6598 20.7808 39.1998 20.2408 39.1998 19.5808V16.8888C39.1998 16.2288 38.6598 15.6888 37.9998 15.6888ZM3.4198 19.5808C3.4198 19.8008 3.2398 19.9808 3.0198 19.9808H1.9998C1.7758 19.9808 1.5998 19.8008 1.5998 19.5808V16.8888C1.5998 16.6688 1.7758 16.4888 1.9998 16.4888H3.0198C3.2398 16.4888 3.4198 16.6688 3.4198 16.8888V19.5808ZM6.6198 22.0768C6.6198 22.7408 6.0798 23.2768 5.41981 23.2768C4.7558 23.2768 4.2198 22.7408 4.2198 22.0768V14.3928C4.2198 13.7288 4.7558 13.1928 5.41981 13.1928C6.0798 13.1928 6.6198 13.7288 6.6198 14.3928V22.0768ZM10.5878 24.3128C10.5878 25.1848 9.8798 25.8968 9.00381 25.8968C8.1278 25.8968 7.4198 25.1848 7.4198 24.3128V12.1568C7.4198 11.2808 8.1278 10.5728 9.00381 10.5728C9.8798 10.5728 10.5878 11.2808 10.5878 12.1568V24.3128ZM23.2278 14.7888C23.2278 14.5342 23.3289 14.29 23.509 14.11C23.689 13.93 23.9332 13.8288 24.1878 13.8288C24.7158 13.8288 25.1438 14.2608 25.1438 14.7888V16.3528C25.1438 16.6064 25.0431 16.8495 24.8638 17.0288C24.6845 17.2081 24.4414 17.3088 24.1878 17.3088C23.6558 17.3088 23.2278 16.8808 23.2278 16.3528V14.7888ZM20.5118 14.7888C20.5118 14.2608 20.9398 13.8288 21.4678 13.8288C21.9958 13.8288 22.4278 14.2608 22.4278 14.7888V16.3528C22.4278 16.8808 21.9958 17.3088 21.4678 17.3088C20.9398 17.3088 20.5118 16.8808 20.5118 16.3528V14.7888ZM17.7918 14.7888C17.7918 14.2608 18.2238 13.8288 18.7518 13.8288C19.2798 13.8288 19.7118 14.2608 19.7118 14.7888V16.3528C19.7118 16.8808 19.2798 17.3088 18.7518 17.3088C18.2238 17.3088 17.7918 16.8808 17.7918 16.3528V14.7888ZM15.0758 14.7888C15.0758 14.2608 15.5078 13.8288 16.0358 13.8288C16.5638 13.8288 16.9918 14.2608 16.9918 14.7888V16.3528C16.9918 16.8808 16.5638 17.3088 16.0358 17.3088C15.5078 17.3088 15.0758 16.8808 15.0758 16.3528V14.7888ZM25.1438 23.3608C25.1438 23.8208 25.0678 24.2408 24.9158 24.6048C24.7398 25.0248 24.5118 25.4328 24.2398 25.8168C23.7278 26.5408 23.4558 27.3848 23.4558 28.2528V36.6928C23.4558 36.9128 23.2758 37.0928 23.0558 37.0928H16.9718C16.7518 37.0928 16.5718 36.9128 16.5718 36.6928V28.4608C16.5718 27.4608 16.1718 26.5208 15.4718 25.8848C15.0718 25.5208 14.7198 25.1128 14.3998 24.6288C14.1264 24.2116 13.9805 23.7237 13.9798 23.2248V19.6448C13.9798 19.3368 14.2278 19.0888 14.5358 19.0888H18.2118C18.5518 19.0888 18.8238 19.3648 18.8238 19.7008C18.8238 20.0408 18.5518 20.3168 18.2118 20.3168H16.8438C16.3038 20.3168 15.8598 20.7568 15.8598 21.2968V22.0688C15.8598 22.4768 16.1278 22.8528 16.5198 22.9968C18.3078 23.6488 19.3318 24.8728 19.6478 26.7408C19.657 26.7926 19.6763 26.842 19.7045 26.8863C19.7328 26.9306 19.7696 26.9689 19.8127 26.999C19.8558 27.0291 19.9044 27.0504 19.9557 27.0617C20.007 27.073 20.0601 27.074 20.1118 27.0648C20.3278 27.0288 20.4758 26.8248 20.4398 26.6048C20.0758 24.4608 18.8478 22.9928 16.7958 22.2448C16.7158 22.2128 16.6598 22.1448 16.6598 22.0688V21.2968C16.6598 21.1968 16.7438 21.1168 16.8438 21.1168H18.2118C18.5358 21.1168 18.8318 21.0008 19.0718 20.8168H25.1438V23.3608ZM28.6078 20.0168H19.5878C19.6348 19.81 19.6347 19.5952 19.5875 19.3884C19.5403 19.1816 19.4472 18.9881 19.3151 18.8222C19.1829 18.6562 19.0152 18.5221 18.8242 18.4298C18.6332 18.3375 18.4239 18.2893 18.2118 18.2888H14.5358C14.1769 18.2888 13.8326 18.4311 13.5784 18.6846C13.3242 18.938 13.1809 19.2819 13.1798 19.6408V20.0168H11.3878V16.8848H14.3678C14.5958 17.5928 15.2518 18.1088 16.0358 18.1088C16.5838 18.1088 17.0718 17.8528 17.3918 17.4528C17.7158 17.8528 18.2038 18.1088 18.7518 18.1088C19.3038 18.1088 19.7878 17.8528 20.1118 17.4528C20.274 17.6577 20.4803 17.8232 20.7155 17.9369C20.9507 18.0507 21.2086 18.1098 21.4698 18.1098C21.7311 18.1098 21.9889 18.0507 22.2241 17.9369C22.4593 17.8232 22.6657 17.6577 22.8278 17.4528C23.1518 17.8528 23.6358 18.1088 24.1878 18.1088C24.9678 18.1088 25.6238 17.5928 25.8518 16.8848H28.6078V20.0168ZM32.5798 24.3128C32.5798 25.1848 31.8678 25.8968 30.9918 25.8968C30.572 25.8958 30.1697 25.7285 29.8729 25.4317C29.5761 25.1349 29.4089 24.7326 29.4078 24.3128V12.1568C29.4078 11.2808 30.1198 10.5728 30.9918 10.5728C31.8678 10.5728 32.5798 11.2808 32.5798 12.1568V24.3128ZM35.7758 22.0768C35.7799 22.2368 35.752 22.3959 35.6937 22.5449C35.6353 22.6938 35.5477 22.8296 35.4361 22.9442C35.3244 23.0587 35.191 23.1498 35.0436 23.212C34.8961 23.2742 34.7378 23.3062 34.5778 23.3062C34.4178 23.3062 34.2595 23.2742 34.1121 23.212C33.9646 23.1498 33.8312 23.0587 33.7195 22.9442C33.6079 22.8296 33.5203 22.6938 33.4619 22.5449C33.4036 22.3959 33.3757 22.2368 33.3798 22.0768V14.3928C33.3798 14.0751 33.506 13.7704 33.7307 13.5457C33.9554 13.321 34.2601 13.1948 34.5778 13.1948C34.8955 13.1948 35.2002 13.321 35.4249 13.5457C35.6496 13.7704 35.7758 14.0751 35.7758 14.3928V22.0768ZM38.3998 19.5808C38.3998 19.8008 38.2198 19.9808 37.9998 19.9808H36.9758C36.7558 19.9808 36.5758 19.8008 36.5758 19.5808V16.8888C36.5758 16.6688 36.7558 16.4888 36.9758 16.4888H37.9998C38.2198 16.4888 38.3998 16.6688 38.3998 16.8888V19.5808ZM19.9946 6.12243H19.9962C20.0755 6.12243 20.1516 6.09104 20.2078 6.03512C20.264 5.97921 20.2958 5.90331 20.2962 5.82403L20.315 2.40963C20.3152 2.37023 20.3077 2.33118 20.2928 2.2947C20.2779 2.25822 20.256 2.22503 20.2283 2.19702C20.2006 2.16902 20.1676 2.14674 20.1313 2.13147C20.095 2.1162 20.056 2.10824 20.0166 2.10803C19.8526 2.09523 19.7158 2.24043 19.715 2.40643L19.6962 5.82083C19.696 5.86022 19.7035 5.89928 19.7184 5.93575C19.7333 5.97223 19.7552 6.00542 19.7829 6.03343C19.8106 6.06143 19.8436 6.08371 19.8799 6.09898C19.9162 6.11425 19.9552 6.12222 19.9946 6.12243Z" fill="black"/>
<path d="M19.9732 9.92922H19.9748C20.0541 9.92922 20.1301 9.89783 20.1863 9.84192C20.2426 9.786 20.2744 9.71011 20.2748 9.63082L20.2816 8.41602C20.2818 8.37662 20.2742 8.33757 20.2594 8.30109C20.2445 8.26461 20.2226 8.23142 20.1948 8.20342C20.1671 8.17541 20.1342 8.15314 20.0979 8.13787C20.0615 8.1226 20.0226 8.11463 19.9832 8.11442H19.9816C19.9023 8.11442 19.8262 8.14581 19.77 8.20172C19.7138 8.25764 19.682 8.33353 19.6816 8.41282L19.6748 9.62722C19.6745 9.66665 19.682 9.70575 19.6969 9.74227C19.7117 9.77879 19.7337 9.81203 19.7614 9.84008C19.7891 9.86813 19.8221 9.89044 19.8584 9.90573C19.8947 9.92103 19.9338 9.92901 19.9732 9.92922ZM16.3504 9.79162C16.3985 9.85495 16.4699 9.89656 16.5487 9.90729C16.6276 9.91801 16.7074 9.89698 16.7708 9.84882C16.8341 9.80066 16.8757 9.72931 16.8864 9.65047C16.8972 9.57163 16.8761 9.49175 16.828 9.42842L13.624 5.21642C13.6007 5.18353 13.571 5.15566 13.5368 5.13449C13.5025 5.11331 13.4643 5.09926 13.4244 5.09317C13.3846 5.08708 13.344 5.08907 13.3049 5.09904C13.2659 5.10901 13.2292 5.12674 13.1972 5.15117C13.1651 5.17561 13.1384 5.20625 13.1184 5.24126C13.0985 5.27628 13.0858 5.31495 13.0811 5.35498C13.0765 5.395 13.0799 5.43556 13.0912 5.47422C13.1026 5.51289 13.1216 5.54887 13.1472 5.58002L16.3504 9.79162ZM23.5976 9.83242L26.848 5.65642C26.8735 5.62545 26.8925 5.58969 26.9039 5.55125C26.9153 5.51281 26.9189 5.47248 26.9145 5.43262C26.91 5.39277 26.8976 5.35421 26.878 5.31922C26.8585 5.28424 26.832 5.25354 26.8004 5.22893C26.7687 5.20433 26.7324 5.18632 26.6937 5.17598C26.655 5.16563 26.6145 5.16316 26.5748 5.16871C26.5351 5.17425 26.4969 5.1877 26.4625 5.20827C26.428 5.22883 26.3981 5.25608 26.3744 5.28842L23.124 9.46402C23.0985 9.49499 23.0795 9.53075 23.0681 9.56919C23.0567 9.60763 23.0531 9.64796 23.0575 9.68782C23.0619 9.72767 23.0743 9.76623 23.0939 9.80122C23.1135 9.8362 23.1399 9.8669 23.1716 9.89151C23.2032 9.91611 23.2395 9.93412 23.2783 9.94446C23.317 9.9548 23.3574 9.95728 23.3971 9.95173C23.4369 9.94619 23.4751 9.93273 23.5095 9.91217C23.5439 9.89161 23.5739 9.86476 23.5976 9.83242Z" fill="black"/>
</svg>
