<svg width="20" height="20" viewBox="0 0 20 20" fill="none" xmlns="http://www.w3.org/2000/svg">
<path d="M10.4914 10.9504C10.4288 10.743 10.4052 10.1864 10.3874 9.96167L10.3269 9.31645C10.2837 8.83319 10.3247 8.19057 9.99398 7.79134C9.83602 7.98265 9.75777 8.28843 9.73023 8.52663L9.63447 9.86788C9.57965 10.5795 9.47359 11.2906 9.34197 11.9916L8.85115 14.1492C8.73729 14.5365 8.62607 14.924 8.51723 15.3127C8.24271 16.293 8.09342 17.0178 8.01275 18.0327L7.99998 18.3016C7.99357 18.7417 7.88201 18.7417 7.52 18.7423L6.18621 18.7425C6.0634 18.7425 5.85898 18.7827 5.75367 18.7096L5.74203 18.7013C5.59508 18.6003 5.59586 18.5266 5.59555 18.3653L5.59279 16.6872C5.5891 16.5004 5.56018 16.3049 5.54184 16.1182L5.13094 12.7722L4.97301 10.7521L4.96234 10.2213C4.95637 10.0937 4.93129 9.96764 4.92633 9.84044L4.91721 9.17499C4.91533 9.09938 4.90164 9.02534 4.89893 8.95038L4.92824 6.84819L4.95621 6.55075C5.01268 5.72698 5.11502 5.25388 5.33676 4.45893L5.92563 2.29999L6.05559 1.71579C6.10236 1.50364 6.10244 1.32803 6.34512 1.26114L13.4899 1.25781C13.6629 1.25839 13.7755 1.26995 13.8594 1.4486L13.8669 1.46503C13.8831 1.49934 13.8949 1.53521 13.9014 1.57271L14.9257 5.49985C14.9768 5.66055 14.9869 5.8472 15.0046 6.01431L15.0449 6.46503C15.0508 6.52532 15.0629 6.58516 15.0662 6.64569L15.0828 7.667L15.0639 10.0641C15.061 10.1505 15.0392 10.2359 15.0358 10.3224L15.0235 10.8449C15.0206 10.9071 15.0069 10.9681 15.0029 11.0301L14.8606 12.8858L14.4537 16.0298L14.4162 16.6253L14.3971 18.1957C14.399 18.3894 14.4442 18.5679 14.265 18.6964L14.2495 18.7074C14.1599 18.7721 14.0236 18.742 13.9194 18.7422L12.6029 18.7423C11.9043 18.7417 12.0398 18.6518 11.9951 18.0793L11.882 17.0363C11.8234 16.5721 11.7042 16.1184 11.5804 15.6684L11.1425 14.1213C10.9316 13.3423 10.7369 12.5502 10.6064 11.7531L10.4914 10.9504ZM7.34279 1.77021L6.55828 1.77405C6.53191 1.83823 6.52348 1.90765 6.50863 1.97509L6.42416 2.37323C6.38937 2.51997 6.33537 2.66848 6.30932 2.81634L12.6244 2.81731L13.6957 2.8147L13.4875 1.94304C13.4756 1.89873 13.4664 1.80245 13.4379 1.77301L7.34279 1.77021ZM6.17639 3.32073L5.65572 5.16548C5.71525 5.12321 5.77311 5.08097 5.8182 5.02268C6.1333 4.64559 6.35549 3.82841 6.47723 3.3296L6.17639 3.32073ZM6.99586 3.31868C6.97725 3.42514 6.98387 3.53325 6.96447 3.64046C6.8642 4.19491 6.58684 5.17386 6.1326 5.49452L5.94824 5.61397C5.75074 5.73766 5.56828 5.64663 5.54684 5.76679C5.51527 5.9436 5.50986 6.126 5.49211 6.30442L5.41082 7.19042L5.40996 9.43436C5.42154 9.68665 5.44635 9.93927 5.45721 10.1906L5.46932 10.6245C5.47316 10.6954 5.48896 10.7631 5.49291 10.8335L5.62885 12.7921C5.63459 12.8479 5.64736 12.903 5.65205 12.9592L6.05846 16.426C6.07855 16.6861 6.09867 16.9371 6.09912 17.1987L6.10947 18.0236C6.11209 18.0862 6.10369 18.1493 6.11313 18.211L7.5143 18.2108C7.53918 17.7669 7.55934 17.3134 7.63508 16.8743C7.78588 16.0002 8.0427 15.1601 8.28576 14.3091L8.71057 12.6223C8.85359 11.9522 8.98016 11.269 9.05877 10.5883L9.13397 9.75669C9.15801 9.48393 9.17291 9.22815 9.19072 8.95628L9.21135 8.77141C9.24646 8.34005 9.30061 7.95514 9.53672 7.58102C10.0616 6.74932 10.5983 7.59661 10.7069 8.17579L10.7526 8.43751C10.7784 8.57063 10.7729 8.71356 10.7864 8.84864L10.9033 10.2634L11.0561 11.4337L11.3719 13.0305L11.5789 13.8112L11.6032 13.9102C11.6065 13.9274 11.6117 13.941 11.6174 13.9573L11.6839 14.2113C11.6872 14.2258 11.6915 14.2383 11.6964 14.2522L12.202 16.0652C12.253 16.227 12.2779 16.4067 12.3064 16.5738L12.4659 17.8213C12.4744 17.9499 12.4912 18.0735 12.4932 18.2037C12.5219 18.2157 12.5649 18.21 12.5967 18.21L12.8655 18.2101C13.2071 18.2103 13.5561 18.2269 13.8968 18.2094L13.8993 17.0776C13.9001 16.7148 13.9228 16.3841 13.9551 16.0256L14.2947 13.4637L14.5043 11.0302C14.5113 10.9136 14.5315 10.7994 14.5348 10.6823L14.5784 9.54704L14.5977 8.18638L14.5452 6.52546C14.5279 6.26007 14.5146 5.99255 14.4729 5.7296C14.4137 5.7046 14.3437 5.70116 14.2821 5.6821C14.0229 5.60188 13.7664 5.45811 13.5887 5.24895L13.5796 5.23829C13.4354 5.06356 13.3703 4.80862 13.2981 4.59852C13.262 4.49337 13.2044 4.39739 13.1664 4.29393C13.0515 3.98098 13.0159 3.65233 13.0174 3.32089L10.6471 3.33151C10.7393 3.55661 10.7791 3.77632 10.7915 4.02024L10.7916 5.28339C10.7901 5.32116 10.7928 5.387 10.7739 5.42073L10.7618 5.43841C10.7187 5.50132 10.6786 5.55477 10.5998 5.5746C10.2502 5.66259 10.3051 5.22702 10.3085 5.04415L10.3108 4.52206C10.3115 4.12858 10.3391 3.65884 10.0305 3.36743C10.024 3.53858 10.0526 3.71593 10.0575 3.88932C10.0657 4.17589 10.0633 4.46526 10.0331 4.75042L9.99662 4.99233C9.96766 5.19964 9.81971 5.89805 9.50658 5.84583C9.20646 5.79577 9.30842 5.53233 9.37129 5.35055L9.47887 4.98893C9.54105 4.73958 9.57201 4.45329 9.56607 4.19573L9.53295 3.41792C9.53147 3.39026 9.5351 3.35216 9.52242 3.32815L6.99586 3.31868ZM13.5438 3.31958C13.5471 3.63768 13.6553 3.98763 13.7505 4.28729C13.7909 4.41423 13.861 4.52319 13.9147 4.64391C13.9994 4.83448 14.0428 5.01073 14.2476 5.11237L14.3385 5.15171L13.8811 3.4886C13.8673 3.43368 13.8602 3.37354 13.8333 3.32366L13.6427 3.31973C13.6146 3.31971 13.5702 3.3261 13.5438 3.31958Z" fill="#292526"/>
</svg>
