<svg width="40" height="40" viewBox="0 0 40 40" fill="none" xmlns="http://www.w3.org/2000/svg">
<path fill-rule="evenodd" clip-rule="evenodd" d="M12.8434 10.7996L18.9753 13.2303L16.5447 19.8595C16.5447 19.8595 15.7612 22.8456 14.7216 23.8921C14.0073 24.6111 12.9696 25.245 11.9594 25.1627C11.0737 25.0906 10.2132 24.4295 9.74982 23.6712C9.18882 22.7533 9.24201 21.5361 9.36301 20.4671C9.74826 17.0639 12.8434 10.7996 12.8434 10.7996Z" stroke="black" stroke-linecap="round" stroke-linejoin="round"/>
<path d="M11.1309 25.1075L8.58984 31.8471" stroke="black"/>
<path d="M6.21387 30.5765L10.9648 32.731" stroke="black" stroke-linecap="round" stroke-linejoin="round"/>
<path d="M29.1768 34.1783L33.7861 32.2252" stroke="black" stroke-linecap="round" stroke-linejoin="round"/>
<path d="M31.5597 33.2408L28.9424 25.8971" stroke="black"/>
<path d="M10.4951 15.9373L16.9861 18.0365" stroke="black"/>
<path d="M23.4346 19.4517L29.1766 17.2642" stroke="black"/>
<path fill-rule="evenodd" clip-rule="evenodd" d="M21.4033 14.1784L27.3408 12.3423L30.3096 20.4673C30.3096 20.4673 31.3126 22.5418 31.0908 23.5923C30.8762 24.6092 30.1299 25.6395 29.1766 26.0534C28.2531 26.4542 27.0358 26.2917 26.1689 25.7798C25.2484 25.2363 24.8443 24.0826 24.3721 23.1236C22.9841 20.3052 21.4033 14.1784 21.4033 14.1784Z" stroke="black" stroke-linecap="round" stroke-linejoin="round"/>
<path d="M20.5215 5.8277L20.9081 8.8661" stroke="black" stroke-linecap="round" stroke-linejoin="round"/>
<path d="M23.7812 9.05951L25.4937 6.96021" stroke="black" stroke-linecap="round" stroke-linejoin="round"/>
<path d="M17.8975 9.14236L16.2402 6.84973" stroke="black" stroke-linecap="round" stroke-linejoin="round"/>
<path d="M14.0986 19.7838C14.1111 20.0935 13.7935 20.4655 13.484 20.4812C13.1425 20.4984 12.7379 20.1257 12.7314 19.7838C12.7314 19.4616 13.0928 19.1002 13.415 19.1002C13.7373 19.1002 14.0885 19.4617 14.0986 19.7838Z" fill="black"/>
<path d="M12.5098 21.814C12.5223 22.1237 12.2046 22.4957 11.8951 22.5114C11.5536 22.5286 11.1491 22.1559 11.1426 21.814C11.1426 21.4918 11.5039 21.1304 11.8262 21.1304C12.1484 21.1304 12.4996 21.4919 12.5098 21.814Z" fill="black"/>
<path d="M27.3507 20.7914C27.3632 21.101 27.0456 21.4732 26.7361 21.4888C26.3946 21.5063 25.9899 21.1334 25.9834 20.7914C25.9834 20.4691 26.3449 20.1078 26.6671 20.1078C26.9894 20.1078 27.3406 20.4693 27.3507 20.7914Z" fill="black"/>
<path d="M29.2842 22.283C29.2967 22.5926 28.9791 22.9647 28.6696 22.9804C28.3281 22.9979 27.9235 22.625 27.917 22.283C27.917 21.9607 28.2783 21.5994 28.6006 21.5994C28.9228 21.5994 29.2741 21.9608 29.2842 22.283Z" fill="black"/>
<path d="M13.7481 13.0436L12.9268 14.8228" stroke="black" stroke-width="0.5" stroke-linecap="round" stroke-linejoin="round"/>
<path d="M23.4453 15.2323L24.1269 17.0698" stroke="black" stroke-width="0.5" stroke-linecap="round" stroke-linejoin="round"/>
</svg>
