<svg width="40" height="40" viewBox="0 0 40 40" fill="none" xmlns="http://www.w3.org/2000/svg">
<path fill-rule="evenodd" clip-rule="evenodd" d="M20.0003 38.3334C30.1255 38.3334 38.3337 30.1252 38.3337 20C38.3337 9.8748 30.1255 1.66669 20.0003 1.66669C9.87511 1.66669 1.66699 9.8748 1.66699 20C1.66699 30.1252 9.87511 38.3334 20.0003 38.3334ZM36.667 20C36.667 29.2047 29.205 36.6667 20.0003 36.6667C10.7956 36.6667 3.33366 29.2047 3.33366 20C3.33366 10.7953 10.7956 3.33335 20.0003 3.33335C29.205 3.33335 36.667 10.7953 36.667 20ZM15.2026 17.4754C15.6491 17.3637 15.9206 16.9112 15.809 16.4648C15.6973 16.0183 15.2449 15.7468 14.7984 15.8584L9.79841 17.1084C9.35191 17.22 9.08044 17.6725 9.19208 18.119C9.30369 18.5655 9.75614 18.837 10.2026 18.7254L15.2026 17.4754ZM24.192 16.4648C24.3037 16.0183 24.7562 15.7468 25.2027 15.8584L30.2027 17.1084C30.6492 17.22 30.9207 17.6725 30.809 18.119C30.6973 18.5655 30.2448 18.837 29.7985 18.7254L24.7985 17.4754C24.352 17.3637 24.0805 16.9112 24.192 16.4648ZM14.9333 26.8057C14.5498 26.5512 14.0326 26.6559 13.7782 27.0395C13.5238 27.423 13.6285 27.9402 14.012 28.1945C14.2759 28.3695 14.5478 28.5334 14.8273 28.6852C16.4043 29.5424 18.1697 29.9942 19.9645 30C21.7593 30.006 23.5275 29.566 25.1103 28.7194C25.412 28.558 25.7052 28.3829 25.9888 28.1945C26.3725 27.9402 26.4772 27.423 26.2227 27.0395C25.9683 26.6559 25.4512 26.5512 25.0677 26.8057C24.8275 26.965 24.5795 27.1132 24.3242 27.2497C22.985 27.9662 21.4887 28.3385 19.97 28.3335C18.4513 28.3284 16.9575 27.946 15.6232 27.2209C15.3867 27.0924 15.1566 26.9537 14.9333 26.8057Z" fill="black"/>
</svg>
