<svg width="40" height="40" viewBox="0 0 40 40" fill="none" xmlns="http://www.w3.org/2000/svg">
<path d="M29.0645 6.37199C29.2661 6.33599 29.4213 6.33919 29.5525 6.34239C29.7293 6.34559 29.8333 6.34799 29.9589 6.09199C30.0397 5.92879 30.1005 5.82479 30.1501 5.73999C30.2389 5.58959 30.2877 5.50639 30.3909 5.11279C30.4885 4.74079 30.5805 4.69759 30.6837 4.64879C30.6861 4.64799 30.6885 4.64719 30.7053 4.61439C30.7245 4.57519 30.7285 4.48079 30.7325 4.37999C30.7365 4.27359 30.7413 4.16239 30.7645 4.05359C30.9581 3.16159 30.8661 2.52719 30.6117 2.08719C30.4717 1.84479 30.2813 1.65919 30.0613 1.51999C29.8365 1.37679 29.5797 1.28239 29.3157 1.22479C28.5581 1.05999 27.7517 1.19759 27.3917 1.40639C27.1205 1.56319 26.9381 1.79519 26.8205 2.09199C26.6949 2.40959 26.6381 2.80239 26.6237 3.25519C26.6077 3.72319 26.6221 4.10879 26.6333 4.42479C26.6413 4.65519 26.6485 4.84879 26.6421 5.01599C26.6093 5.92959 26.2941 6.06159 24.5397 5.99759C23.9781 5.97759 23.8677 5.91039 23.6389 5.77039C23.5677 5.72719 23.4821 5.67519 23.3661 5.61839C22.7709 5.32639 22.4029 5.44159 21.9933 5.56879C21.7405 5.64799 21.4741 5.73119 21.1325 5.74879C20.8861 5.76239 20.6421 5.77359 20.4157 5.78399C18.5957 5.86799 18.0213 5.89439 16.7965 7.06879C16.5765 7.27999 16.3501 7.53039 16.1269 7.79679C15.9005 8.06719 15.6821 8.34879 15.4797 8.62159C15.3861 8.74719 15.3005 8.86639 15.2125 8.98719C14.8805 9.44719 14.5261 9.93759 14.1629 10.284C14.0285 10.4128 13.6197 10.9768 13.2293 11.5544C12.8725 12.0824 12.5381 12.612 12.4485 12.8224H12.4493L11.6349 14.832C11.6501 14.8712 11.6805 14.9312 11.7237 14.9856C11.7381 15.0024 11.7509 15.0168 11.7629 15.0248C11.7965 15.0016 11.8397 14.9448 11.8941 14.8408C11.9525 14.7288 11.9909 14.6512 12.0277 14.5776V14.5768C12.2333 14.1632 12.3957 13.8368 12.8077 13.4768L12.8173 13.468C13.1301 13.2456 13.4437 13.024 13.7565 12.8016L13.6061 13.3944C13.5821 13.4912 13.5501 13.58 13.5205 13.6632C13.4845 13.7664 13.4517 13.8592 13.4533 13.904L13.5821 13.9C13.7461 13.6568 13.7965 13.5264 13.8885 13.288C13.9157 13.2192 13.9453 13.1424 13.9741 13.0712C14.0229 12.9496 14.0741 12.8456 14.1245 12.744C14.2277 12.5368 14.3253 12.34 14.3525 12.0616C14.3829 11.752 14.4093 11.5624 14.4741 11.3936C14.5413 11.2168 14.6413 11.0808 14.8173 10.884C15.4477 10.1784 16.0893 9.63679 16.7925 9.04399C16.9013 8.95119 17.0125 8.85839 17.1245 8.76239C17.2373 8.66719 17.3429 8.58399 17.4461 8.50319C17.6117 8.37279 17.7725 8.24639 17.9109 8.11119C18.7837 7.25359 18.8317 7.28319 19.2285 7.53359C19.3165 7.58959 19.4325 7.66239 19.6157 7.72399C19.7229 7.76079 20.0109 7.79279 20.3613 7.83119C20.9389 7.89599 21.6741 7.97759 22.1765 8.15119L22.3309 8.20399L22.3277 8.36799C22.3141 9.19839 22.2325 10.472 22.0941 11.6832C21.9837 12.6472 21.8365 13.5792 21.6557 14.232C21.5789 14.5112 21.5229 14.7456 21.4797 14.9272C21.3213 15.592 21.3069 15.6544 20.7949 15.8376C20.4277 15.9696 20.1005 16.2752 19.8309 16.668C19.5117 17.1328 19.2765 17.7136 19.1517 18.276C19.0221 18.8584 19.0109 19.4976 19.1501 20.0856C19.2717 20.6008 19.5077 21.0728 19.8805 21.4256L20.0893 21.6232L19.8469 21.7784C18.9357 22.3624 18.3877 23.3464 17.8509 24.3104C17.4669 24.9992 17.0885 25.6784 16.5821 26.2208C16.0349 26.8064 15.4149 26.7784 14.7013 26.7464C14.2381 26.7256 13.7309 26.7032 13.1997 26.8752C13.0005 26.9392 12.8053 27.0208 12.6053 27.104C11.9653 27.3712 11.2789 27.6584 10.0053 27.5952L9.88447 27.5896L9.81807 27.4792C9.61807 27.148 9.38127 26.7552 8.98767 26.692C8.43167 26.6024 8.23567 26.9952 8.01407 27.4392C7.82767 27.8128 7.62767 28.2152 7.22367 28.4968C7.07327 28.6016 6.93007 28.6944 6.78847 28.7864C6.54687 28.9432 6.31087 29.096 6.10607 29.2632C5.81887 29.4976 5.61807 29.9832 5.58287 30.42C5.56927 30.5864 5.58047 30.7416 5.62127 30.8664C5.65407 30.968 5.70687 31.0472 5.78127 31.0888C5.87327 31.14 6.01087 31.1456 6.20447 31.0848H6.20527C6.37967 31.0296 6.52767 30.7992 6.66767 30.5816C6.77887 30.408 6.88527 30.2416 7.02607 30.1232C7.31967 29.8768 7.83567 29.8328 8.29807 29.7936C8.37327 29.7872 8.44767 29.7808 8.51567 29.7744C8.51647 29.764 8.51647 29.7544 8.51727 29.7448C8.52847 29.4128 8.53327 29.2928 9.46607 29.1592C9.68607 29.128 9.89167 29.1064 10.0973 29.0896C10.2909 29.0744 10.5013 29.0632 10.7301 29.0528C11.9013 28.9976 12.6157 28.9656 13.3317 28.988C14.0509 29.0104 14.7597 29.0864 15.9149 29.2464L16.0821 29.2696C16.6941 29.3544 16.9917 29.396 17.1501 29.3496C17.2629 29.3168 17.3453 29.1912 17.5045 28.9472C17.5429 28.8872 17.5853 28.8224 17.6101 28.7856C17.8589 28.4104 18.5565 27.8712 18.9893 27.536L19.1053 27.4464C19.7429 26.9496 20.8589 26.0496 21.7925 25.1776C22.4013 24.6088 22.9285 24.0568 23.1797 23.6504L23.2613 23.5192L23.4117 23.5472C23.8197 23.6224 24.2261 23.7872 24.5965 23.9792C24.9637 24.1688 25.2933 24.3832 25.5533 24.5648L25.6669 24.644L25.6477 24.7816C25.6133 25.02 25.4525 25.4352 25.3109 25.8032C25.2437 25.9784 25.1805 26.1416 25.1397 26.2632C24.6901 27.6072 24.7749 27.9696 24.9925 28.8952C25.0317 29.0656 25.0765 29.2536 25.1245 29.4784C25.1925 29.7968 25.2381 30.1256 25.2845 30.4552C25.3157 30.6808 25.3469 30.9064 25.3885 31.1424C25.4189 31.3144 25.4597 31.5192 25.5037 31.7384C25.6925 32.684 25.9349 33.9 25.7709 34.736C25.6981 35.108 25.5525 35.3752 25.4093 35.6384C25.3221 35.8 25.2349 35.9592 25.1725 36.1376C25.0941 36.364 25.0453 36.6848 25.0501 36.9944C25.0541 37.2264 25.0877 37.4464 25.1605 37.6032C25.3029 37.6872 25.5933 37.784 25.8917 37.8832C26.2269 37.9952 26.5717 38.1104 26.7877 38.236C26.9365 38.3232 27.0397 38.4008 27.1349 38.4728C27.3781 38.6568 27.5557 38.7912 28.4373 38.8352C29.6189 38.8928 30.3789 38.7224 30.8005 38.476C30.9581 38.3832 31.0613 38.284 31.1157 38.1864C31.1573 38.1104 31.1677 38.0368 31.1485 37.972C31.1261 37.896 31.0653 37.824 30.9709 37.7632C30.8253 37.6704 30.7237 37.6768 30.6069 37.684C30.3253 37.7024 29.9837 37.724 29.2053 37.1576C28.5261 36.6624 28.5349 36.4072 28.5437 36.1544C28.5469 36.044 28.5509 35.9344 28.2821 35.704C28.1477 35.5888 28.1981 35.632 28.2357 35.664C28.0853 35.536 28.0245 35.48 27.9349 35.2704C27.8413 35.0504 27.8165 35.0384 27.7957 35.0288C27.6629 34.964 27.5653 34.916 27.3645 34.084C27.2677 33.6792 27.2221 33.3448 27.2085 33.0016C27.1957 32.6592 27.2141 32.3168 27.2461 31.8904L27.2685 31.6008L27.2797 31.604C27.3157 30.9888 27.3693 30.3856 27.4229 29.7832C27.4717 29.228 27.5213 28.6728 27.5549 28.1488L27.5573 28.112C27.6453 26.7456 27.7005 25.8912 28.1621 24.7176C28.7765 23.1528 28.2797 22.7048 27.2717 21.7952C27.0957 21.6368 26.9053 21.4648 26.6925 21.2624C26.5909 21.1656 26.4373 21.0272 26.2733 20.8808C26.0333 20.6672 25.7973 20.4616 25.6549 20.3392L25.5653 20.2616L25.5781 20.144C25.6133 19.8312 25.7365 19.3824 25.8877 18.9304C26.0773 18.3616 26.3117 17.7848 26.4669 17.4728C26.9141 16.5744 27.4229 15.6184 27.9365 14.6536C28.6165 13.376 29.3045 12.084 29.9037 10.8112L30.0309 10.5416L30.2557 10.7376C30.4589 10.9152 30.5373 11.2264 30.6245 11.5728C30.6557 11.6984 30.6885 11.8288 30.7301 11.9584C30.8349 12.2888 31.3285 13.3936 31.7893 14.328C32.1317 15.024 32.4445 15.6136 32.5333 15.6752C32.6029 15.724 32.8237 15.82 33.0461 15.8912C33.2005 15.9408 33.3453 15.976 33.4149 15.968C33.9157 15.912 34.0365 14.964 34.1045 14.4368C34.1165 14.3424 34.1269 14.2584 34.1317 14.2264C34.2389 13.5312 34.2725 12.6776 34.2709 11.804C34.2685 10.9272 34.2309 10.02 34.1949 9.23039C34.1741 8.75359 34.2373 8.33759 34.3029 7.90559C34.3669 7.48719 34.4333 7.05279 34.4221 6.55439L34.4197 6.44159C34.4093 5.87439 34.3877 4.78159 34.1645 4.41759C33.9949 4.52239 33.9981 4.81359 34.0021 5.18799C34.0085 5.75279 34.0165 6.46319 33.5565 7.15919L33.3069 7.53759L33.1565 7.10959C33.1133 6.98799 33.0949 6.88079 33.0781 6.78239C33.0637 6.69439 33.0501 6.61919 33.0141 6.56879C32.9957 6.66399 32.9981 6.92079 33.0013 7.11119C33.0029 7.17359 33.0061 7.24239 33.0085 7.29679C33.0093 7.31999 33.0101 7.33919 33.0109 7.36959C33.0133 7.45599 33.0101 7.57279 33.0061 7.70239C32.9973 8.01759 32.9853 8.42319 33.0453 8.53039C33.0837 8.59839 33.0949 8.60319 33.1029 8.60719C33.2277 8.65999 33.3005 8.69119 33.3525 9.05599L33.3549 9.07279L33.2701 12.2936C33.2733 12.4392 33.2221 12.5496 33.1557 12.6104C33.1069 12.6552 33.0477 12.68 32.9837 12.6832C32.9173 12.6872 32.8541 12.6664 32.7989 12.62C32.7301 12.5632 32.6757 12.4576 32.6725 12.3088C32.6525 11.4168 32.3229 10.2792 31.8413 9.32319C31.4061 8.45999 30.8573 7.75599 30.3173 7.53839C29.9837 7.45119 29.7261 7.43919 29.4101 7.42399C29.2853 7.41839 29.1517 7.41199 29.0261 7.40319L28.7925 7.38639L28.8981 6.40239L29.0645 6.37199ZM29.5437 6.79199C29.4741 6.79039 29.3965 6.78879 29.3093 6.79519L29.2909 6.96799C29.3397 6.97039 29.3853 6.97279 29.4301 6.97439C29.7789 6.99119 30.0621 7.00399 30.4461 7.10639L30.4605 7.11039L30.4709 7.11439C31.1245 7.37039 31.7605 8.16159 32.2429 9.11999C32.4957 9.62079 32.7085 10.1712 32.8613 10.7144L32.9037 9.09919C32.8973 9.00879 32.9485 9.03039 32.9269 9.02159C32.8573 8.99119 32.7645 8.95199 32.6517 8.75119C32.5317 8.53679 32.5461 8.05999 32.5565 7.68959C32.5605 7.56639 32.5637 7.45679 32.5613 7.38239C32.5613 7.37519 32.5597 7.34799 32.5581 7.31679C32.5565 7.26639 32.5533 7.20319 32.5517 7.11839C32.5437 6.69679 32.5901 6.09039 33.0237 6.08159L33.0677 6.08079L33.1085 6.09679C33.2853 6.16559 33.3789 6.25839 33.4341 6.37039C33.5605 5.95599 33.5565 5.54239 33.5525 5.19119C33.5453 4.52879 33.5397 4.04079 34.1997 3.93519L34.2981 3.91919L34.3757 3.98159C34.8293 4.34479 34.8565 5.74239 34.8701 6.43439L34.8717 6.54559C34.8837 7.09039 34.8149 7.53999 34.7493 7.97199C34.6861 8.38559 34.6261 8.78319 34.6453 9.21039C34.6805 9.99999 34.7181 10.908 34.7205 11.804C34.7221 12.7032 34.6877 13.58 34.5781 14.2936C34.5653 14.3776 34.5581 14.432 34.5501 14.4928C34.4669 15.1456 34.3165 16.32 33.4645 16.416C33.3269 16.432 33.1157 16.3864 32.9085 16.32C32.6493 16.2368 32.3749 16.1136 32.2757 16.044C32.1173 15.9336 31.7557 15.28 31.3853 14.528C30.9149 13.5736 30.4085 12.4392 30.2997 12.0944C30.2565 11.9584 30.2213 11.8176 30.1869 11.6824C30.1629 11.5872 30.1397 11.4952 30.1157 11.4128C29.5645 12.5512 28.9461 13.7144 28.3333 14.8656C27.8333 15.804 27.3381 16.7344 26.8709 17.6736C26.7213 17.9736 26.4965 18.528 26.3141 19.0736C26.1909 19.4424 26.0877 19.8064 26.0421 20.0784C26.1981 20.2128 26.3973 20.3872 26.5725 20.5432C26.7325 20.6856 26.8877 20.8264 27.0029 20.936C27.1989 21.1224 27.3933 21.2984 27.5733 21.46C28.7365 22.5104 29.3101 23.0272 28.5813 24.8816C28.1461 25.9904 28.0925 26.8176 28.0069 28.1408L28.0045 28.1768C27.9685 28.74 27.9205 29.2808 27.8725 29.8216C27.8093 30.532 27.7461 31.2432 27.7133 31.9232L27.6989 32.2216L27.6757 32.2144C27.6581 32.5008 27.6493 32.748 27.6581 32.9864C27.6701 33.3 27.7125 33.6064 27.8021 33.98C27.9525 34.604 27.9693 34.612 27.9917 34.6224C28.0821 34.6664 28.1893 34.7192 28.3501 35.0944C28.4013 35.2152 28.4405 35.248 28.5421 35.3344C28.6301 35.4096 28.3845 35.1992 28.5749 35.3624C29.0085 35.7328 29.0005 35.9496 28.9933 36.168C28.9885 36.304 28.9837 36.44 29.4701 36.7936C30.1157 37.264 30.3693 37.248 30.5781 37.2344C30.7733 37.2224 30.9421 37.2112 31.2125 37.384C31.4021 37.5048 31.5277 37.6648 31.5805 37.8448C31.6333 38.0256 31.6125 38.2184 31.5093 38.4048C31.4173 38.5696 31.2589 38.728 31.0277 38.864C30.5405 39.1496 29.6941 39.3472 28.4157 39.2848C27.3941 39.2344 27.1701 39.0648 26.8629 38.8328C26.7773 38.768 26.6837 38.6968 26.5621 38.6264C26.3837 38.5224 26.0621 38.4144 25.7485 38.3104C25.3853 38.1888 25.0325 38.0712 24.8549 37.9408L24.8165 37.9136L24.7925 37.8696C24.6629 37.6408 24.6061 37.3248 24.6005 37.0016C24.5949 36.64 24.6533 36.2608 24.7477 35.9896C24.8213 35.7784 24.9173 35.6016 25.0141 35.4232C25.1405 35.192 25.2677 34.9576 25.3285 34.6496C25.4749 33.9016 25.2421 32.7344 25.0613 31.8264C25.0181 31.6096 24.9773 31.4072 24.9445 31.22C24.9045 30.996 24.8717 30.756 24.8381 30.5168C24.7933 30.1976 24.7493 29.8792 24.6829 29.572C24.6381 29.3616 24.5933 29.1704 24.5533 28.9976C24.3149 27.984 24.2221 27.5872 24.7133 26.12C24.7565 25.9904 24.8213 25.8216 24.8909 25.6416C24.9981 25.364 25.1157 25.0584 25.1717 24.8504C24.9453 24.6968 24.6773 24.528 24.3901 24.3792C24.0981 24.228 23.7853 24.096 23.4741 24.0208C23.1781 24.4464 22.6717 24.9728 22.0989 25.5072C21.1581 26.3856 20.0285 27.2976 19.3821 27.8008C19.3005 27.864 19.2837 27.8768 19.2645 27.892C18.8541 28.2096 18.1941 28.7208 17.9853 29.0344C17.9341 29.112 17.9069 29.1536 17.8813 29.192C17.6621 29.5288 17.5493 29.7016 17.2749 29.7816C17.0237 29.8552 16.6957 29.8096 16.0205 29.716L15.8533 29.6928C14.7109 29.5344 14.0149 29.46 13.3197 29.4384C12.6229 29.416 11.9141 29.448 10.7509 29.5024C10.5429 29.512 10.3437 29.5232 10.1325 29.54C9.93167 29.5552 9.73487 29.576 9.52927 29.6056C8.96927 29.6856 8.96847 29.7056 8.96687 29.7608C8.96447 29.8352 8.96127 29.9248 8.92607 30.0424L8.88527 30.1824L8.74047 30.2024C8.60527 30.2208 8.47327 30.232 8.33567 30.2432C7.93887 30.2768 7.49727 30.3144 7.31567 30.4672C7.23007 30.5392 7.14047 30.6792 7.04687 30.8248C6.86447 31.1088 6.67087 31.4104 6.33967 31.5152C6.01567 31.6176 5.75807 31.5928 5.56127 31.4824C5.37967 31.3808 5.25967 31.212 5.19247 31.0056C5.13247 30.8216 5.11487 30.6072 5.13247 30.3848C5.17647 29.8408 5.44047 29.2248 5.82207 28.9144C6.04527 28.732 6.29167 28.572 6.54287 28.4088C6.68687 28.316 6.83247 28.2216 6.96607 28.128C7.27327 27.9136 7.44847 27.5632 7.61007 27.2384C7.91007 26.6376 8.17567 26.1056 9.05807 26.248C9.61407 26.3368 9.90847 26.7608 10.1461 27.1504C11.2421 27.1848 11.8573 26.928 12.4325 26.688C12.6381 26.6024 12.8381 26.5184 13.0621 26.4464C13.6701 26.2496 14.2197 26.2744 14.7213 26.2968C15.3229 26.324 15.8469 26.3472 16.2517 25.9136C16.7237 25.4096 17.0877 24.7552 17.4573 24.0912C17.9789 23.1552 18.5101 22.2016 19.3805 21.5536C19.0485 21.1664 18.8301 20.6936 18.7109 20.188C18.5565 19.5352 18.5685 18.8248 18.7125 18.1792C18.8493 17.5648 19.1077 16.9272 19.4605 16.4144C19.7805 15.948 20.1813 15.58 20.6437 15.4144C20.9237 15.3144 20.9333 15.272 21.0405 14.8232C21.0813 14.6512 21.1341 14.4296 21.2221 14.112C21.3949 13.4872 21.5381 12.5784 21.6461 11.632C21.7749 10.508 21.8533 9.33999 21.8749 8.52959C21.4221 8.40319 20.8069 8.33439 20.3117 8.27999C19.9365 8.23759 19.6269 8.20319 19.4725 8.15119C19.2373 8.07199 19.0957 7.98239 18.9885 7.91519C18.8605 7.83439 18.8453 7.82399 18.2261 8.43199C18.0661 8.58959 17.8981 8.72159 17.7245 8.85759C17.6205 8.93919 17.5141 9.02319 17.4157 9.10639C17.3037 9.20159 17.1925 9.29519 17.0837 9.38799C16.3901 9.97279 15.7573 10.5064 15.1525 11.184C15.0157 11.3368 14.9405 11.4376 14.8957 11.5544C14.8485 11.6784 14.8261 11.8384 14.8005 12.1048V12.1056C14.7645 12.4672 14.6501 12.6992 14.5285 12.9432C14.4821 13.0376 14.4333 13.1352 14.3917 13.2384C14.3557 13.3296 14.3309 13.3928 14.3085 13.4504C14.1917 13.7528 14.1333 13.9024 13.8877 14.2512L13.8229 14.3424L13.7101 14.3464C13.1757 14.3632 13.0125 14.196 13.0029 13.9184V13.9088C12.7301 14.1768 12.5965 14.4464 12.4309 14.7776C12.3829 14.8736 12.3333 14.9744 12.2941 15.0488C12.1901 15.2496 12.0773 15.3672 11.9653 15.4272C11.8373 15.4952 11.7157 15.4936 11.6037 15.4488C11.5125 15.4112 11.4357 15.3448 11.3733 15.2672C11.2549 15.1208 11.1805 14.9056 11.1749 14.828L11.1701 14.776L12.0309 12.6528L12.0325 12.6504C12.1341 12.4104 12.4853 11.8496 12.8549 11.3024C13.2597 10.704 13.6941 10.1096 13.8525 9.95759C14.1877 9.63839 14.5277 9.16719 14.8477 8.72479C14.9429 8.59279 15.0357 8.46399 15.1181 8.35359C15.3293 8.06959 15.5541 7.77919 15.7813 7.50719C16.0125 7.23119 16.2501 6.96959 16.4845 6.74479C17.8309 5.45279 18.4469 5.42479 20.3965 5.33439C20.6101 5.32399 20.8405 5.31359 21.1101 5.29919C21.3925 5.28399 21.6317 5.20959 21.8597 5.13839C22.3581 4.98319 22.8069 4.84319 23.5637 5.21439C23.7061 5.28399 23.7973 5.33999 23.8733 5.38639C24.0349 5.48479 24.1133 5.53199 24.5557 5.54799C25.9285 5.59759 26.1733 5.52479 26.1925 4.99999C26.1981 4.84879 26.1909 4.66239 26.1837 4.44079C26.1717 4.11839 26.1581 3.72479 26.1733 3.24159C26.1901 2.73919 26.2557 2.29679 26.4029 1.92639C26.5581 1.53519 26.8005 1.22719 27.1653 1.01599C27.5989 0.765586 28.5437 0.595986 29.4109 0.783986C29.7245 0.851986 30.0301 0.965586 30.3029 1.13839C30.5805 1.31519 30.8221 1.55119 31.0013 1.86079C31.3093 2.39359 31.4253 3.13519 31.2061 4.14879C31.1893 4.22479 31.1861 4.31359 31.1821 4.39759C31.1765 4.54959 31.1709 4.69199 31.1069 4.81679C31.0205 4.98799 30.9445 5.02319 30.8741 5.05679C30.8725 5.05759 30.8709 5.05839 30.8269 5.22719C30.7077 5.67919 30.6477 5.78159 30.5389 5.96719C30.4941 6.04319 30.4397 6.13519 30.3629 6.29199C30.1109 6.80319 29.9013 6.79919 29.5437 6.79199Z" fill="black"/>
<path d="M26.0233 20.0504C26.1217 20.1272 26.1385 20.268 26.0625 20.3664C25.9857 20.464 25.8441 20.4816 25.7465 20.4048C25.1081 19.9056 24.7721 19.4256 24.4601 18.9816C24.1209 18.4976 23.8137 18.0592 23.1433 17.7048C23.0329 17.6472 22.9905 17.5104 23.0489 17.4008C23.1065 17.2904 23.2425 17.248 23.3529 17.3064C24.1185 17.7104 24.4561 18.192 24.8289 18.724C25.1217 19.1416 25.4377 19.592 26.0233 20.0504ZM23.7617 24.1048L23.6545 24.0576C21.6433 23.1656 19.9913 22.4336 19.1953 21.3096L19.5617 21.0488C20.2865 22.0704 21.8865 22.7808 23.8361 23.6448L23.9433 23.692L23.7617 24.1048ZM8.54492 29.5712C8.63452 29.0704 8.77772 28.6416 8.99212 28.2544C9.20812 27.8664 9.49372 27.524 9.86892 27.2008L10.1641 27.5408C9.82812 27.8304 9.57452 28.1328 9.38572 28.4736C9.19532 28.8152 9.06892 29.1992 8.98732 29.6504L8.54492 29.5712ZM25.5945 35.2752C25.5289 35.464 25.6289 35.5816 25.8065 35.6432C26.0465 35.7272 26.3945 35.7336 26.7441 35.684C27.0953 35.6336 27.4377 35.5272 27.6625 35.384C27.8177 35.2856 27.9017 35.176 27.8393 35.0768L28.2201 34.8352C28.4545 35.2056 28.2825 35.5256 27.9041 35.7648C27.6257 35.9416 27.2177 36.0712 26.8073 36.1304C26.3945 36.1888 25.9689 36.1768 25.6577 36.0688C25.2329 35.92 24.9969 35.6216 25.1697 35.1272L25.5945 35.2752ZM17.2921 25.144C17.5601 25.6056 17.8593 25.9912 18.2737 26.276C18.6897 26.5624 19.2297 26.7544 19.9809 26.8312L19.9369 27.2792C19.1033 27.1944 18.4953 26.9752 18.0177 26.6464C17.5393 26.3176 17.2009 25.884 16.9017 25.3696L17.2921 25.144ZM24.4481 24.3472C24.2657 23.8728 24.3409 23.3088 24.5705 22.7824C24.7305 22.4152 24.9673 22.0624 25.2433 21.7712C25.5233 21.4744 25.8465 21.24 26.1753 21.1136C26.5089 20.9856 26.8497 20.9672 27.1625 21.1032L26.9825 21.516C26.7865 21.4304 26.5625 21.4464 26.3353 21.5336C26.0713 21.6352 25.8057 21.8304 25.5697 22.0792C25.3297 22.3328 25.1233 22.6408 24.9833 22.9616C24.7977 23.3888 24.7321 23.832 24.8681 24.1872L24.4481 24.3472ZM21.1145 15.1792C22.2081 15.2976 23.2689 15.5672 24.2249 15.9384C25.2313 16.3296 26.1217 16.8352 26.8113 17.3984L26.5273 17.7472C25.8729 17.2136 25.0241 16.7328 24.0625 16.3584C23.1425 16.0008 22.1209 15.7408 21.0673 15.6272L21.1145 15.1792ZM19.8737 8.15919C19.8553 8.13599 19.8409 8.11519 19.8281 8.09599C19.5737 7.71839 19.4897 7.18159 19.5465 6.68479C19.6033 6.17999 19.8081 5.70319 20.1289 5.45919L20.1281 5.45839C20.1457 5.44559 20.1609 5.43439 20.1737 5.42639L20.4257 5.79999C20.4153 5.80719 20.4073 5.81279 20.4017 5.81679H20.4009C20.1825 5.98319 20.0385 6.34159 19.9945 6.73439C19.9489 7.13599 20.0097 7.55999 20.2017 7.84559C20.2137 7.86239 20.2233 7.87679 20.2313 7.88719L19.8737 8.15919ZM30.6593 12.1912C30.8105 12.1536 30.8913 12.1352 30.9665 12.1176C31.7017 11.9456 32.0145 11.872 32.5297 11.104L32.9041 11.3544C32.2889 12.2712 31.9249 12.356 31.0689 12.5568C30.9545 12.5832 30.8321 12.612 30.7649 12.628L30.6593 12.1912ZM26.3377 5.76719C26.0977 6.11599 26.1841 6.47839 26.4297 6.77999C26.6177 7.00879 26.8921 7.20559 27.1921 7.34319C27.4929 7.47999 27.8161 7.55679 28.1025 7.54719C28.4545 7.53519 28.7465 7.38159 28.8337 7.02559L29.2713 7.13359C29.1257 7.72319 28.6665 7.97839 28.1169 7.99679C27.7609 8.00959 27.3665 7.91679 27.0057 7.75199C26.6441 7.58719 26.3113 7.34719 26.0809 7.06559C25.7121 6.61439 25.5897 6.05999 25.9673 5.51119L26.3377 5.76719Z" fill="black"/>
</svg>
