<svg width="40" height="40" viewBox="0 0 40 40" fill="none" xmlns="http://www.w3.org/2000/svg">
<path d="M29.167 10.8334L27.0715 12.929M10.8337 29.1667L12.9293 27.0712M10.8337 10.8333L12.9293 12.9289M29.167 29.1667L27.0715 27.071M20.41 7.77399L20.0003 6.66669L19.5907 7.77399C18.0203 12.0175 17.2352 14.1393 15.6874 15.6871C14.1396 17.2349 12.0178 18.02 7.77429 19.5904L6.66699 20L7.77429 20.4097C12.0178 21.98 14.1396 22.7652 15.6874 24.313C17.2352 25.8607 18.0203 27.9825 19.5907 32.226L20.0003 33.3334L20.41 32.226C21.9803 27.9825 22.7655 25.8607 24.3133 24.313C25.861 22.7652 27.9828 21.98 32.2263 20.4097L33.3337 20L32.2263 19.5904C27.9828 18.02 25.861 17.2349 24.3133 15.6871C22.7655 14.1393 21.9803 12.0175 20.41 7.77399Z" stroke="#363636" stroke-linecap="round" stroke-linejoin="round"/>
</svg>
