<svg width="40" height="40" viewBox="0 0 40 40" fill="none" xmlns="http://www.w3.org/2000/svg">
<path d="M13.2148 15.1625H26.6061M5.94984 17.7L17.7073 17.6225M5.79359 17.35C6.19984 16.5625 6.99484 15.945 7.82484 15.6313C10.5411 14.6013 13.3398 15.275 16.5361 15.4363C17.2436 15.4713 17.8086 16.2825 18.0198 16.9588C18.2761 17.7788 17.8973 18.6963 17.5898 19.4988C16.9623 21.1375 16.1923 22.9113 14.7773 23.9513C13.9198 24.5813 12.7523 24.6863 11.6923 24.7713C10.1011 24.9013 8.25109 25.1938 6.92609 24.3025C6.04609 23.7113 5.65359 22.5288 5.44234 21.49C5.16609 20.1325 5.15859 18.5813 5.79234 17.35H5.79359ZM34.0398 17.35C33.6336 16.5625 32.8386 15.945 32.0086 15.6313C29.2936 14.6013 26.4948 15.275 23.2986 15.4363C22.5898 15.4713 22.0248 16.2825 21.8136 16.9588C21.5586 17.7788 21.9361 18.6963 22.2436 19.4988C22.8711 21.1375 23.6411 22.9113 25.0561 23.9513C25.9136 24.5813 27.0811 24.6863 28.1423 24.7713C29.7323 24.9013 31.5823 25.1938 32.9073 24.3025C33.7873 23.7113 34.1811 22.5288 34.3923 21.49C34.6673 20.1325 34.6761 18.5813 34.0398 17.35Z" stroke="black"/>
<path d="M17.3197 20.06L4.28223 20.115" stroke="black" stroke-linecap="round" stroke-linejoin="round"/>
<path d="M5.99512 22.5463L15.6076 22.9875M23.6726 22.7663H33.8376" stroke="black"/>
<path d="M22.457 19.8938L35.7145 19.9488" stroke="black" stroke-linecap="round" stroke-linejoin="round"/>
<path d="M22.0145 17.4088L34.002 17.5738M18.0195 18.7175C18.0195 18.7175 19.2358 17.8963 19.9333 17.8575C20.6583 17.8175 22.0045 18.5213 22.0045 18.5213" stroke="black"/>
</svg>
