<svg width="20" height="20" viewBox="0 0 20 20" fill="none" xmlns="http://www.w3.org/2000/svg">
<path d="M13.3476 16.2188L12.4053 16.4496C11.7896 16.5983 11.1531 16.7174 10.5188 16.7472L9.22814 16.7212C8.47358 16.6663 7.95712 16.5392 7.2248 16.3612L6.32032 16.1291C6.04284 16.059 5.63114 16.0534 5.55298 15.7103C5.53341 15.6244 5.55314 15.5041 5.5546 15.4155L5.59704 13.9444C5.60296 13.8305 5.622 13.718 5.62546 13.6035L5.66603 12.5216L5.71267 10.6181C5.71597 10.459 5.73866 10.3012 5.74653 10.1424L5.71876 8.94914C5.68433 8.51274 5.63814 8.10744 5.44722 7.70422C5.39931 7.73145 5.35599 7.76711 5.30929 7.79653C5.03298 7.97065 4.69843 8.04459 4.41017 8.19899C4.13234 8.34782 3.9063 8.61629 3.57894 8.65426L3.56458 8.65582C3.19194 8.70039 2.87058 8.32846 2.66323 8.06912C2.24032 7.54012 1.65318 6.4758 2.09866 5.80866C2.24427 5.59063 2.5365 5.46354 2.7555 5.33131L3.64591 4.79768L4.37384 4.28797C5.08622 3.74252 5.28958 3.58414 6.24036 3.43584L7.43319 3.26201C7.53919 3.24522 7.64345 3.23705 7.74913 3.21532C8.1654 3.16883 8.41524 3.46133 8.51521 3.83791C8.69544 4.51686 9.53241 4.85963 10.1957 4.8085C10.7392 4.76658 11.242 4.39338 11.466 3.90053C11.5067 3.81106 11.5193 3.7153 11.5541 3.62485C11.703 3.23739 12.0226 3.18698 12.3711 3.24034L13.7428 3.43364C14.6717 3.58084 14.9309 3.74514 15.6938 4.33635L17.1061 5.24905C17.4215 5.43262 17.8134 5.58946 17.9749 5.94264C18.2377 6.51774 17.8549 7.34373 17.531 7.81053C17.3003 8.14303 16.9695 8.5795 16.546 8.65168C16.2804 8.69698 16.0588 8.50324 15.8598 8.35895C15.4486 8.06086 14.9385 7.9852 14.5408 7.70377C14.3814 8.02678 14.2842 8.65055 14.2601 9.00022C14.244 9.23366 14.2473 9.46836 14.247 9.70223L14.2542 10.401L14.2974 11.4844C14.299 11.5743 14.315 11.6634 14.3178 11.7533L14.3783 13.9014L14.4169 14.6289C14.4201 14.7177 14.4379 14.8046 14.4426 14.8926L14.4457 15.2948C14.4506 15.5745 14.5229 15.9117 14.1669 16.0152L13.3476 16.2188ZM7.83194 3.8135C7.81913 3.8711 7.83446 3.93407 7.84622 3.99102L7.89419 4.20596C7.89802 4.22498 7.90405 4.23967 7.91058 4.25784L7.93362 4.33287C7.95757 4.41612 8.00901 4.51643 8.04634 4.59475C8.50351 5.55387 9.39276 6.35979 10.5304 6.01401C11.1406 5.82858 11.5764 5.29821 11.8628 4.75414L12.0237 4.39203C12.0612 4.28467 12.182 3.93569 12.1505 3.82326L12.1326 3.81252C12.0855 3.85492 12.0677 3.98057 12.0439 4.04262C11.3295 5.90698 8.59148 5.84504 7.90948 3.93213C7.89581 3.89377 7.88497 3.8427 7.85737 3.81264L7.83194 3.8135ZM12.7501 3.88467C12.7161 4.06254 12.6936 4.23932 12.6417 4.41373C12.2577 5.70576 11.0416 6.93373 9.60569 6.65059L9.55066 6.63836C9.44491 6.61315 9.33968 6.59491 9.23652 6.55852C8.13538 6.17014 7.38507 5.02446 7.24591 3.89666L6.42511 4.01016C5.55025 4.13598 5.41862 4.22678 4.69607 4.7802L4.18614 5.14766L2.71745 6.04211C2.63757 6.08936 2.58929 6.10258 2.55677 6.19143L2.552 6.20389C2.35943 6.72569 3.12458 7.81264 3.51837 8.08303C3.69985 7.95742 3.86704 7.82168 4.06263 7.71608C4.37232 7.54883 4.70538 7.44117 5.01954 7.28604C5.13718 7.22795 5.23933 7.1493 5.35175 7.0828L5.59577 5.78307C5.62972 5.54897 5.67704 5.23182 5.99146 5.28244C6.08798 5.29799 6.16251 5.38334 6.19784 5.47002L6.20232 5.48059C6.25753 5.62399 6.16712 5.92352 6.14232 6.07106L5.92079 7.18258C5.90257 7.25715 5.91948 7.26647 5.94569 7.33889L6.22548 8.22866C6.30575 8.48838 6.32507 9.13533 6.32794 9.43192L6.31974 10.6999C6.31626 10.8048 6.2937 10.9065 6.29089 11.0121L6.27435 11.9106L6.21706 13.3301C6.1962 13.7268 6.19484 14.1431 6.16181 14.5307L6.13155 15.4773C6.18077 15.5103 6.23026 15.5104 6.28591 15.5225L6.94837 15.6855C7.64696 15.8627 8.33292 16.0376 9.0504 16.1115L9.26376 16.139C10.0451 16.2085 10.9529 16.1559 11.714 16.0066L13.7297 15.5164C13.7778 15.5046 13.8273 15.4994 13.8723 15.4779L13.8011 13.9567L13.7927 13.4393L13.7158 11.919L13.7101 11.0683C13.707 10.9056 13.683 10.747 13.6758 10.5856L13.6706 9.64936C13.6716 8.86217 13.6983 8.22248 14.0015 7.46641L14.065 7.31864C14.0934 7.25602 14.0949 7.25119 14.0811 7.1852L13.8196 5.89334C13.6619 5.09588 14.2453 5.17649 14.3466 5.50783L14.3516 5.52268C14.3922 5.64705 14.391 5.79006 14.4172 5.91766L14.6326 6.96957C14.6847 7.26592 15.2587 7.40145 15.5163 7.51274C15.8636 7.6628 16.1741 7.84991 16.4755 8.07784C16.9239 7.71827 17.6939 6.7344 17.4122 6.11592C17.2857 6.02655 17.1417 5.95567 17.0079 5.8767L15.2471 4.74114C15.1703 4.68555 15.1014 4.61881 15.0261 4.561C14.5789 4.21744 14.2438 4.10506 13.7026 4.02608L13.2033 3.9451C13.0539 3.92498 12.8977 3.91408 12.7501 3.88467Z" fill="#292526"/>
<path d="M10.095 9.56033L9.55984 9.67041C9.52859 9.74574 9.51204 9.83316 9.49044 9.91199L9.22511 11.0936L9.04419 12.4588C8.99677 12.7761 8.42978 12.9677 8.47362 12.2217L8.65001 10.869L8.86634 9.8741L8.59593 9.92539C8.32542 9.9826 8.05144 9.90549 8.15694 9.56193L8.16208 9.54578C8.23085 9.32375 8.52441 9.30902 8.71769 9.26088L10.7907 8.82672C10.978 8.79256 11.1634 8.74566 11.3528 8.72412C11.4841 8.73043 11.5757 8.7882 11.6327 8.91008L11.6515 8.95129C11.6678 8.99436 11.6655 9.05932 11.6462 9.10041L11.6409 9.11121C11.5618 9.28607 11.4209 9.45291 11.3102 9.61047L11.0404 10.0153C10.9748 10.1151 10.8958 10.2254 10.8544 10.3379C11.062 10.3022 11.303 10.5108 11.2162 10.7239L11.2105 10.7372C11.1125 10.9722 10.8242 10.9716 10.6085 10.9944C10.5611 11.117 10.5274 11.2457 10.4921 11.3721L10.3103 12.1449C10.2898 12.25 10.2889 12.3673 10.2638 12.4681C10.167 12.8577 9.7054 12.7666 9.68347 12.5159L9.68273 12.5048C9.66243 12.3189 9.69196 12.126 9.72413 11.9432L9.90603 11.1352C9.79419 11.1612 9.60448 11.2103 9.49888 11.1516C9.32905 11.0573 9.3346 10.8414 9.42915 10.6929C9.50017 10.5813 9.66064 10.5693 9.77829 10.5406L10.0921 10.4641L10.6806 9.43684L10.095 9.56033Z" fill="#292526"/>
</svg>
