<svg width="40" height="40" viewBox="0 0 40 40" fill="none" xmlns="http://www.w3.org/2000/svg">
<g clip-path="url(#clip0_668_4903)">
<path d="M20.8441 22.9482C26.3615 24.689 31.0185 27.1821 34.6891 30.3491H35.4118C35.8362 30.3491 36.2376 30.4277 36.6276 30.5288L37.2929 28.9004C37.5682 28.2266 37.7059 27.4966 37.7059 26.7891C37.7059 25.666 37.3732 24.5767 36.7309 23.6445L20.8441 22.9482ZM20.8441 22.9482C14.1338 20.8145 8.04296 20.3652 5.58825 20.2754L20.8441 22.9482ZM30.3902 13.4127L30.1721 13.4407V13.4514C29.6582 13.5182 29.0438 13.6105 28.3516 13.7283C27.4061 13.8751 26.1632 14.1006 24.6918 14.4157L23.7985 14.607L24.6647 14.8972C28.5395 16.1954 32.092 17.7613 35.2885 19.572L35.6618 19.7834V19.3545V18.2539C35.6618 17.6002 35.3805 16.9525 34.9099 16.4918L32.5031 14.1354C32.5027 14.135 32.5024 14.1346 32.502 14.1343C31.9424 13.5746 31.166 13.3131 30.3902 13.4127ZM25.2877 12.5017L26.0324 12.3485L25.3421 12.0299C23.8972 11.3628 22.244 10.9961 20.5 10.9961C18.7554 10.9961 17.0787 11.3743 15.6334 12.053L14.948 12.3749L15.6904 12.5244C17.3041 12.8493 18.8933 13.2076 20.4471 13.6215L20.5123 13.6388L20.5774 13.621C22.3374 13.1399 23.9264 12.7817 25.2877 12.5017ZM6.09012 16.4918L6.01502 16.5653V16.5781C5.57769 17.0352 5.33825 17.6497 5.33825 18.2651V20.2754V20.5164L5.57911 20.5252C8.02116 20.6146 14.0875 21.062 20.7684 23.1865L20.7689 23.1867C26.2598 24.919 30.8853 27.3974 34.5258 30.5384L34.5962 30.5991H34.6891H35.4118C35.8057 30.5991 36.1839 30.6721 36.5649 30.7708L36.7764 30.8256L36.8591 30.6234L37.5244 28.9949C37.8123 28.2903 37.9559 27.5281 37.9559 26.7891C37.9559 25.6165 37.6085 24.4779 36.9374 23.5037C36.9372 23.5033 36.937 23.503 36.9367 23.5027L35.9516 22.0446L35.9214 22L35.8756 21.9717C31.4247 19.2284 26.1831 17.0186 20.2799 15.385L20.2797 15.385C17.8278 14.7088 15.2609 14.1453 12.6593 13.7282L12.6583 13.7281C11.8679 13.6047 11.1882 13.5032 10.6219 13.4352C9.83474 13.3242 9.06999 13.5743 8.49894 14.1334L6.09012 16.4918ZM3.47565 28.9949L3.4799 28.9941L4.14094 30.6121L4.22358 30.8144L4.43509 30.7596C4.81615 30.6608 5.1943 30.5879 5.58825 30.5879H6.3109H6.4041L6.47455 30.5269C9.32941 28.0547 12.8258 25.9906 16.8876 24.3709L17.6114 24.0823L16.8548 23.8959C11.3604 22.5426 6.6729 22.2831 5.05613 22.2379L4.91945 22.2341L4.84249 22.3471L4.06249 23.4926C3.39187 24.4775 3.04414 25.6159 3.04414 26.7891C3.04414 27.5281 3.18777 28.2903 3.47565 28.9949Z" stroke="black" stroke-width="0.5"/>
</g>
<defs>
<clipPath id="clip0_668_4903">
<rect width="40" height="40" fill="white"/>
</clipPath>
</defs>
</svg>
