<svg width="183" height="36" viewBox="0 0 183 36" fill="none" xmlns="http://www.w3.org/2000/svg">
<path d="M8.725 7.04166C7.56389 7.04166 6.49445 7.33194 5.51667 7.9125C4.53889 8.4625 3.75972 9.24166 3.17917 10.25C2.62917 11.2278 2.35417 12.3125 2.35417 13.5042V14.375H8.725V15.6583H2.35417V35H0.8875V13.5042C0.8875 12.0681 1.22361 10.7694 1.89583 9.60833C2.59861 8.41666 3.54583 7.48472 4.7375 6.8125C5.95972 6.10972 7.28889 5.75833 8.725 5.75833V7.04166ZM22.3311 35.5042C20.3755 35.5042 18.5574 35.0153 16.8769 34.0375C15.1963 33.0597 13.8672 31.7458 12.8894 30.0958C11.9116 28.4153 11.4227 26.6125 11.4227 24.6875C11.4227 22.7625 11.9116 20.975 12.8894 19.325C13.8672 17.6444 15.1963 16.3153 16.8769 15.3375C18.5574 14.3597 20.3755 13.8708 22.3311 13.8708C24.3172 13.8708 26.1963 14.4056 27.9686 15.475C29.7408 16.5139 30.9783 17.8736 31.6811 19.5542V14.375H33.1477V35H31.6811V29.8667C30.8561 31.5778 29.5727 32.9528 27.8311 33.9917C26.1199 35 24.2866 35.5042 22.3311 35.5042ZM22.4227 34.2208C24.1033 34.2208 25.6616 33.7931 27.0977 32.9375C28.5338 32.0514 29.6644 30.8903 30.4894 29.4542C31.3449 27.9875 31.7727 26.3986 31.7727 24.6875C31.7727 23.0069 31.3449 21.4333 30.4894 19.9667C29.6338 18.5 28.488 17.3389 27.0519 16.4833C25.6158 15.5972 24.0574 15.1542 22.3769 15.1542C20.6963 15.1542 19.1227 15.5972 17.6561 16.4833C16.2199 17.3694 15.0588 18.5458 14.1727 20.0125C13.3172 21.4792 12.8894 23.0528 12.8894 24.7333C12.8894 26.4139 13.3172 27.9875 14.1727 29.4542C15.0588 30.8903 16.2352 32.0514 17.7019 32.9375C19.1686 33.7931 20.7422 34.2208 22.4227 34.2208ZM43.9286 35.5042C42.4619 35.5042 41.1633 35.2597 40.0328 34.7708C38.9022 34.2514 38.0925 33.5944 37.6036 32.8V30.3708C38.1841 31.6847 38.9786 32.6625 39.9869 33.3042C40.9953 33.9153 42.2786 34.2208 43.8369 34.2208C45.3341 34.2208 46.5411 33.7625 47.4578 32.8458C48.3744 31.8986 48.8328 30.6917 48.8328 29.225C48.8328 27.9722 48.573 27.0097 48.0536 26.3375C47.5341 25.6347 46.6939 24.9319 45.5328 24.2292L43.7911 23.2208C42.5383 22.4569 41.5911 21.8611 40.9494 21.4333C40.3383 20.975 39.8494 20.4708 39.4828 19.9208C39.1161 19.3403 38.9328 18.6681 38.9328 17.9042C38.9328 16.6819 39.3605 15.7042 40.2161 14.9708C41.0716 14.2375 42.1869 13.8708 43.5619 13.8708C45.2425 13.8708 46.648 14.2528 47.7786 15.0167V17.0333C46.8314 15.7806 45.4716 15.1542 43.6994 15.1542C42.7216 15.1542 41.9272 15.3986 41.3161 15.8875C40.705 16.3764 40.3994 17.0028 40.3994 17.7667C40.3994 18.4389 40.5828 19.0347 40.9494 19.5542C41.3161 20.0431 41.8203 20.5014 42.4619 20.9292C43.1341 21.3569 44.2341 21.9986 45.7619 22.8542C47.3203 23.7403 48.4661 24.6569 49.1994 25.6042C49.9328 26.5208 50.2994 27.7278 50.2994 29.225C50.2994 31.1194 49.673 32.6472 48.4203 33.8083C47.198 34.9389 45.7008 35.5042 43.9286 35.5042ZM54.867 0.624995H56.3337V18.6375C56.9753 17.2625 58.0601 16.1319 59.5878 15.2458C61.1462 14.3292 62.7198 13.8708 64.3087 13.8708C67.2114 13.8708 69.442 14.6653 71.0003 16.2542C72.5892 17.8431 73.3837 20.0889 73.3837 22.9917V35H71.917V22.9917C71.917 20.4861 71.2448 18.5611 69.9003 17.2167C68.5864 15.8417 66.7226 15.1542 64.3087 15.1542C62.842 15.1542 61.4976 15.5056 60.2753 16.2083C59.0531 16.8806 58.0906 17.8278 57.3878 19.05C56.6851 20.2417 56.3337 21.5556 56.3337 22.9917V35H54.867V0.624995ZM80.9587 9.65416C80.5309 9.65416 80.149 9.50139 79.8129 9.19583C79.5073 8.89028 79.3545 8.50833 79.3545 8.05C79.3545 7.62222 79.5073 7.25555 79.8129 6.95C80.149 6.64444 80.5309 6.49166 80.9587 6.49166C81.3865 6.49166 81.7531 6.64444 82.0587 6.95C82.3948 7.25555 82.5629 7.62222 82.5629 8.05C82.5629 8.50833 82.3948 8.89028 82.0587 9.19583C81.7531 9.50139 81.3865 9.65416 80.9587 9.65416ZM80.2254 14.375H81.692V35H80.2254V14.375ZM98.3342 35.7333C96.2564 35.7333 94.3772 35.2292 92.6967 34.2208C91.0161 33.1819 89.7022 31.8222 88.755 30.1417C87.8078 28.4306 87.3342 26.5819 87.3342 24.5958C87.3342 22.6403 87.8078 20.8222 88.755 19.1417C89.7328 17.4611 91.0467 16.1319 92.6967 15.1542C94.3772 14.1458 96.2411 13.6417 98.2884 13.6417C100.305 13.6417 102.138 14.1458 103.788 15.1542C105.469 16.1319 106.783 17.4611 107.73 19.1417C108.677 20.8222 109.151 22.6403 109.151 24.5958C109.151 26.6431 108.693 28.5222 107.776 30.2333C106.859 31.9139 105.576 33.2583 103.926 34.2667C102.306 35.2444 100.443 35.7333 98.3342 35.7333ZM98.3342 34.45C100.076 34.45 101.665 34.0069 103.101 33.1208C104.537 32.2347 105.652 31.0583 106.447 29.5917C107.272 28.0944 107.684 26.4597 107.684 24.6875C107.684 22.9458 107.272 21.3264 106.447 19.8292C105.622 18.3319 104.491 17.1403 103.055 16.2542C101.619 15.3681 100.03 14.925 98.2884 14.925C96.5467 14.925 94.9425 15.3833 93.4759 16.3C92.0397 17.1861 90.8939 18.3778 90.0384 19.875C89.2134 21.3722 88.8009 22.9917 88.8009 24.7333C88.8009 26.475 89.2134 28.0944 90.0384 29.5917C90.8939 31.0583 92.0397 32.2347 93.4759 33.1208C94.9425 34.0069 96.562 34.45 98.3342 34.45ZM113.575 13.5952H118.789L132.372 25.0034L132.387 13.5952H135.556V35H130.341L116.743 23.635V35H113.575V13.5952ZM145.667 24.7153L138.724 13.5952H148.13L152.308 20.2788L156.571 13.5952H160.331L154.079 23.1309L161.512 35L152.106 35.0144L147.41 27.5242L142.556 35.0144H138.782L145.667 24.7153ZM168.239 16.8794H162.131V13.5808H182.672V16.8794H176.565V35H168.239V16.8794Z" fill="#060E25"/>
</svg>
